<?xml version="1.0" standalone="no"?>
<!DOCTYPE svg PUBLIC "-//W3C//DTD SVG 1.1//EN" "http://www.w3.org/Graphics/SVG/1.1/DTD/svg11.dtd" >
<svg xmlns="http://www.w3.org/2000/svg">
<metadata></metadata>
<defs>
<font id="pf_din_text_cond_proLtIt" horiz-adv-x="870" >
<font-face units-per-em="2048" ascent="1536" descent="-512" />
<missing-glyph horiz-adv-x="409" />
<glyph unicode="&#xfb01;" horiz-adv-x="835" d="M8 -317l238 1222h-115l21 107h114l41 209q29 152 114 214t204 62q92 0 157.5 -29.5t106.5 -83.5l-94 -88q-31 39 -77 58.5t-102 19.5q-78 0 -122.5 -43t-61.5 -119l-37 -200h428l-196 -1012h-125l176 905h-303l-238 -1222h-129z" />
<glyph unicode="&#xfb02;" horiz-adv-x="878" d="M10 -317l236 1222h-115l21 107h114l41 207q29 152 113 218t209 66q35 0 110.5 -11t167.5 -50l-231 -1188q-6 -31 -6 -53q0 -41 22.5 -64.5t77.5 -23.5h29l-25 -119h-22q-98 0 -155.5 39t-57.5 127q0 37 6 73l217 1115q-31 16 -70 23t-69 7q-158 0 -189 -168l-39 -198h199 l-21 -107h-198l-236 -1222h-129z" />
<glyph horiz-adv-x="0" />
<glyph horiz-adv-x="682" />
<glyph unicode=" "  horiz-adv-x="409" />
<glyph unicode="&#x09;" horiz-adv-x="409" />
<glyph unicode="&#xa0;" horiz-adv-x="409" />
<glyph unicode="!" horiz-adv-x="450" d="M74 0l28 145h140l-31 -145h-137zM164 358q18 111 43.5 250.5t51.5 283.5t51.5 283.5t45.5 249.5h127l-223 -1067h-96z" />
<glyph unicode="&#x22;" horiz-adv-x="507" d="M221 1040l76 385h98l-73 -385h-101zM430 1040l76 385h98l-76 -385h-98z" />
<glyph unicode="#" horiz-adv-x="876" d="M23 0l161 455h-157l16 88h172l123 348h-156l17 90h172l161 446h91l-160 -446h235l160 446h92l-159 -446h163l-18 -90h-176l-127 -348h164l-19 -88h-176l-158 -455h-94l160 455h-236l-159 -455h-92zM305 543h238l123 348h-234z" />
<glyph unicode="$" d="M20 227l109 58q27 -66 76 -116t131 -58l110 565q-119 51 -191.5 120.5t-72.5 186.5q0 98 32 180t87 140.5t130 91t161 35.5l33 165h73q-10 -43 -17 -86t-15 -84q57 -6 102 -26.5t79 -51t55.5 -67.5t31.5 -74l-107 -59q-10 27 -24.5 52.5t-36 47t-52 36.5t-71.5 22 q-6 -25 -14 -66t-17.5 -91t-20.5 -104.5t-20.5 -104.5t-17.5 -91t-12 -66q61 -25 112.5 -53.5t88 -65t57 -84t20.5 -110.5q0 -109 -30.5 -197t-88 -150.5t-136.5 -97t-177 -36.5q-10 -53 -20.5 -104.5t-20.5 -104.5h-74l41 213q-121 10 -188.5 75.5t-104.5 159.5zM315 995 q0 -66 44 -107.5t114 -74.5q23 123 46.5 246t47.5 246q-53 -4 -99 -30t-80 -67t-53.5 -96.5t-19.5 -116.5zM410 109q66 6 117 33.5t86.5 72.5t54 103t18.5 126q0 82 -50 127t-120 76q-29 -135 -53.5 -269t-52.5 -269z" />
<glyph unicode="%" horiz-adv-x="1269" d="M98 -35l1049 1495h104l-1050 -1495h-103zM137 805l82 418q18 96 76.5 151.5t161.5 55.5q104 0 160.5 -67t37.5 -169l-77 -424q-16 -92 -74 -149.5t-162 -57.5q-111 0 -169 67.5t-36 174.5zM236 782q-12 -51 16.5 -89t91.5 -38q66 0 94.5 36t38.5 83l84 438 q10 49 -19.5 86t-88.5 37t-91 -32.5t-43 -81.5zM707 231l81 418q18 96 77 151.5t161 55.5q104 0 160.5 -66.5t38.5 -168.5l-78 -424q-16 -92 -74 -149.5t-162 -57.5q-111 0 -169 67.5t-35 173.5zM805 209q-12 -51 16.5 -89t91.5 -38q66 0 94.5 36t39.5 83l83 438 q10 49 -19.5 86t-88.5 37t-91 -33t-42 -82z" />
<glyph unicode="&#x26;" horiz-adv-x="1050" d="M78 281q0 145 86 270t250 229q-29 72 -60.5 153t-31.5 175q0 68 22.5 127t65.5 104t106.5 72t145.5 27q86 0 155.5 -31t110.5 -102l-99 -68q-27 49 -70.5 69.5t-103.5 20.5q-55 0 -95 -19.5t-64.5 -51t-37 -70.5t-12.5 -78q0 -33 16.5 -88t42 -124t57.5 -144.5 t64.5 -148.5t63.5 -137.5t53 -109.5q41 57 66 122t43 122l113 -4q-23 -86 -65 -181.5t-101 -176.5q29 -59 57.5 -120t56.5 -118h-141l-70 141q-92 -90 -171.5 -121.5t-170.5 -31.5q-127 0 -204.5 76.5t-77.5 216.5zM201 289q0 -86 45 -138.5t135 -52.5q66 0 142.5 38 t135.5 102l-198 438q-139 -92 -199.5 -189.5t-60.5 -197.5z" />
<glyph unicode="'" horiz-adv-x="378" d="M260 1040l74 385h100l-74 -385h-100z" />
<glyph unicode="(" horiz-adv-x="495" d="M119 373q0 154 39 307.5t106.5 295.5t156.5 270t189 231l58 -37q-94 -117 -172 -247t-134.5 -271.5t-87 -289t-30.5 -296.5q0 -141 26.5 -277.5t79.5 -255.5l-67 -41q-78 129 -121 286t-43 325z" />
<glyph unicode=")" horiz-adv-x="495" d="M-66 -197q92 111 169 242t134.5 273.5t89 292t31.5 296.5q0 139 -27.5 275.5t-78.5 255.5q16 10 35.5 19t36.5 18q76 -129 117.5 -282t41.5 -321q0 -158 -38.5 -312t-106.5 -297.5t-158 -270.5t-192 -230z" />
<glyph unicode="*" horiz-adv-x="708" d="M201 1167q2 6 9 20.5t16.5 32t16.5 33t11 21.5l207 -96q2 10 6 47t9 77.5t10.5 77.5t5.5 47h108l-65 -249q10 4 44.5 17t75.5 28.5t77 30t46 20.5l17 -107l-250 -65l123 -193l-105 -65l-88 215l-172 -217q-4 4 -15.5 13t-23.5 20.5t-24.5 19.5t-16.5 12l197 195 q-10 2 -42 12t-68 20.5t-68.5 20.5t-40.5 12z" />
<glyph unicode="+" d="M63 543l21 102h344l70 361h100l-70 -361h342l-18 -102h-344l-70 -363h-100l70 363h-345z" />
<glyph unicode="," horiz-adv-x="387" d="M-23 -219l93 213h-41l32 170h156l-31 -164l-133 -219h-76z" />
<glyph unicode="-" horiz-adv-x="733" d="M119 508l24 117h537l-23 -117h-538z" />
<glyph unicode="." horiz-adv-x="378" d="M31 0l30 166h156l-31 -166h-155z" />
<glyph unicode="/" horiz-adv-x="563" d="M-111 -86l750 1571h102l-753 -1571h-99z" />
<glyph unicode="0" d="M62.5 201.5q-15.5 68.5 0.5 154.5l146 754q33 160 127 244t242 84q66 0 125 -22.5t100 -67.5t59.5 -109.5t1.5 -146.5l-147 -777q-29 -156 -121 -241.5t-246 -85.5q-72 0 -132 25.5t-100 72.5t-55.5 115.5zM186 348q-20 -113 28 -176t144 -63q51 0 91 17t68 46t45.5 66.5 t25.5 78.5l151 777q18 96 -32 158.5t-144 62.5t-152.5 -55.5t-76.5 -151.5z" />
<glyph unicode="1" d="M307 0l250 1288l-229 -147l26 137l228 147h129l-277 -1425h-127z" />
<glyph unicode="2" d="M-25 0l23 121l620 747q115 143 115 273q0 74 -43 124t-133 50q-80 0 -148.5 -58.5t-93.5 -162.5l-125 24q37 150 138.5 234t242.5 84q133 0 213 -72t80 -207q2 -106 -43 -190t-106 -162l-568 -684h508l-22 -121h-658z" />
<glyph unicode="3" d="M-23 264l121 23q8 -84 45 -133.5t129 -49.5q76 0 130.5 34t88 89.5t50 125t16.5 141.5q0 88 -41 139t-139 51h-68l23 113h71q59 0 108.5 26.5t84.5 73.5t54.5 110.5t19.5 137.5q0 72 -42 122t-128 50q-78 0 -141.5 -49t-90.5 -146l-123 25q37 145 136.5 217t232.5 72 q143 0 214 -76t71 -191q0 -55 -11.5 -117.5t-38 -122t-71.5 -109.5t-115 -83q37 -14 59.5 -38.5t37 -54.5t19.5 -61.5t5 -62.5q0 -82 -19.5 -175t-66.5 -173t-130 -132t-208 -52q-129 0 -199.5 65.5t-83.5 210.5z" />
<glyph unicode="4" d="M8 229l25 121l602 1075h129l-602 -1077h391l80 414h123l-80 -414h112l-22 -119h-113l-45 -229h-123l43 229h-520z" />
<glyph unicode="5" d="M47 264l127 23q0 -41 8 -75t28.5 -58.5t53.5 -38t84 -13.5q84 0 141.5 54.5t91 136.5t48 176t14.5 172t-38 127t-126 49q-55 0 -113.5 -29.5t-95.5 -78.5h-116q35 180 69.5 358t69.5 358h625l-25 -120h-508q-23 -117 -44.5 -230.5t-43.5 -230.5h2q55 47 115.5 66.5 t117.5 19.5q129 0 183.5 -69.5t54.5 -182.5q0 -143 -24.5 -269t-78 -219.5t-136 -147.5t-199.5 -54q-125 0 -205 65.5t-80 210.5z" />
<glyph unicode="6" d="M63 272q2 113 31 218.5t90 203.5l471 731h133q-135 -217 -236 -374.5t-179 -280.5l2 -2q35 23 76.5 34t80.5 11q66 0 110 -23.5t69.5 -63.5t37 -90t11.5 -106q0 -94 -23.5 -190t-73 -175t-127 -128t-188.5 -49q-141 0 -213 77.5t-72 206.5zM195 295q0 -86 37.5 -138.5 t129.5 -52.5q80 0 132.5 45.5t83 111t43 138t12.5 129.5q0 82 -39 127t-125 45q-78 0 -131 -39.5t-85 -100t-45 -132.5t-13 -133z" />
<glyph unicode="7" d="M72 0l690 1307h-416l-37 -199h-121l64 317h666l-23 -118l-690 -1307h-133z" />
<glyph unicode="8" d="M41 276q0 43 9 111t36 137.5t76 130t127 84.5q-49 31 -78 83t-29 118q0 92 24.5 181t75 159t125.5 113t177 43q137 0 211.5 -78t74.5 -201q0 -53 -11 -117.5t-38.5 -126t-71.5 -109.5t-108 -67q59 -29 88 -91t29 -134q0 -92 -21.5 -185.5t-70 -168t-127 -122.5 t-193.5 -48q-135 0 -220 75.5t-85 212.5zM166 305q0 -35 7 -70.5t27.5 -64.5t56.5 -48.5t93 -19.5q82 0 135.5 39t85 97.5t46 125t16.5 119.5q0 84 -42 143.5t-136 59.5q-84 0 -139.5 -40t-88 -98.5t-47 -124t-14.5 -118.5zM309 942q0 -66 47 -106.5t121 -40.5 q72 0 123 31.5t83 80.5t47 111.5t15 124.5q0 78 -47 127t-133 49q-72 0 -121 -35t-78.5 -89t-43 -120.5t-13.5 -132.5z" />
<glyph unicode="9" d="M121 0q135 217 236.5 374.5t179.5 280.5l-2 2q-35 -23 -77 -34t-81 -11q-66 0 -110 23.5t-70.5 63.5t-36.5 90.5t-10 105.5q0 94 23.5 190.5t72.5 174t127 128t188 50.5q141 0 213 -78t72 -207q-2 -113 -35 -224.5t-86 -197.5l-471 -731h-133zM276 897q0 -82 39 -127 t125 -45q78 0 131.5 40t85 100.5t45 132t13.5 132.5q0 86 -38 138.5t-130 52.5q-80 0 -132.5 -45t-83 -110.5t-43 -138.5t-12.5 -130z" />
<glyph unicode=":" horiz-adv-x="380" d="M29 0l30 166h156l-33 -166h-153zM150 616l30 168h154l-31 -168h-153z" />
<glyph unicode=";" horiz-adv-x="380" d="M-25 -219l95 213h-41l32 170h156l-31 -164l-133 -219h-78zM150 616l32 166h156q-2 -8 -7 -31.5t-10.5 -51t-9.5 -51t-6 -32.5h-155z" />
<glyph unicode="&#x3c;" d="M78 547l18 96l832 381l-21 -117l-706 -317q10 -4 54 -27.5t105.5 -57.5t132 -73t132 -72.5t106.5 -58.5t55 -29l-24 -104z" />
<glyph unicode="=" d="M29 365l22 106h787l-21 -106h-788zM96 709l21 102h786l-20 -102h-787z" />
<glyph unicode="&#x3e;" d="M4 168l23 117q10 4 64 28.5t128 58.5t160 71.5t159.5 71.5t127 57.5t65.5 27.5l-581 320l22 104l686 -381l-18 -96z" />
<glyph unicode="?" horiz-adv-x="847" d="M193 1108q49 166 151 247t256 81q152 0 232.5 -82t80.5 -217q0 -63 -13 -113.5t-36.5 -92.5t-54.5 -78t-68 -73q-33 -35 -66.5 -68.5t-64 -69.5t-54.5 -76t-34 -87l-26 -131h-129l28 141q14 66 54 126.5t89.5 116.5t99.5 107.5t85 98.5q29 37 44 83t15 101 q0 82 -46 136.5t-148 54.5q-53 0 -97.5 -18.5t-78 -50.5t-56 -74t-34.5 -91q-33 8 -65 15.5t-64 13.5zM293 0l31 147h139l-31 -147h-139z" />
<glyph unicode="@" horiz-adv-x="1579" d="M139 520q0 195 61.5 364t171 292.5t263 194.5t338.5 71q133 0 240.5 -39t182 -110.5t115.5 -172t41 -223.5q0 -152 -35.5 -268.5t-94 -194.5t-133.5 -118t-152 -40q-23 0 -52.5 7.5t-57.5 23t-48.5 39t-24.5 55.5h-2q-43 -57 -105.5 -86.5t-123.5 -29.5q-59 0 -99 20.5 t-64.5 54t-35 75.5t-10.5 83q0 88 13.5 186.5t51 180.5t105.5 136t178 54q53 0 106.5 -27.5t75.5 -68.5l3 2l16 90h104q-29 -141 -56.5 -282.5t-55.5 -282.5q-10 -49 13.5 -91t76.5 -42q57 0 112.5 34.5t98.5 101t68.5 164t25.5 220.5q0 109 -37 192.5t-101.5 142 t-151.5 89.5t-187 31q-170 0 -305.5 -65.5t-228.5 -177.5t-143 -259.5t-50 -308.5q0 -242 129 -382.5t387 -140.5q100 0 194.5 19.5t194.5 64.5l31 -92q-100 -35 -207 -59.5t-217 -24.5q-143 0 -258 39t-195 116t-123 187.5t-43 255.5zM616 532q0 -63 28 -106t110 -43 q80 0 133 60.5t80 144.5q18 66 28.5 138.5t10.5 117.5q0 61 -46.5 98t-111.5 37q-72 0 -117 -44t-70.5 -111.5t-35 -145.5t-9.5 -146z" />
<glyph unicode="A" horiz-adv-x="989" d="M-61 0q172 358 342 712.5t344 712.5h125q35 -358 67.5 -712.5t67.5 -712.5h-131l-25 342h-496q-39 -86 -78.5 -171t-80.5 -171h-135zM287 459h434q-10 111 -18.5 217t-18.5 217q-8 86 -13 174t-14 174h-6l-153 -338z" />
<glyph unicode="B" horiz-adv-x="1015" d="M47 0l279 1425h381q158 0 244.5 -74.5t86.5 -222.5q0 -145 -63.5 -245.5t-196.5 -141.5l-2 -4q86 -23 126 -96.5t40 -169.5q-6 -131 -48 -221t-109.5 -145.5t-155.5 -80t-187 -24.5h-395zM199 119h290q80 0 140.5 29.5t101.5 78.5t61.5 114t20.5 134q0 98 -55.5 152.5 t-163.5 54.5h-285q-29 -141 -55.5 -281.5t-54.5 -281.5zM332 797h231q68 0 130.5 17t110.5 54t77.5 95.5t29.5 140.5q0 100 -62.5 151.5t-172.5 51.5h-244q-27 -129 -51.5 -255t-48.5 -255z" />
<glyph unicode="C" horiz-adv-x="948" d="M92 315q0 39 8.5 98.5t18.5 110.5l78 398q18 96 47.5 188t82 165t135.5 117t206 44q170 0 260 -83t100 -218l-133 -39q-2 94 -62.5 154.5t-166.5 60.5q-86 0 -141.5 -31t-92.5 -79t-57.5 -108.5t-34.5 -121.5q-10 -31 -22.5 -92.5t-25.5 -131t-24.5 -132t-17.5 -93.5 q-10 -47 -17.5 -99t-7.5 -93q0 -45 11.5 -85t37 -71t68.5 -48t107 -17q109 0 186.5 58t118.5 169l127 -45q-53 -150 -165 -226.5t-272 -76.5q-178 0 -265 92t-87 235z" />
<glyph unicode="D" horiz-adv-x="1044" d="M49 0l275 1425h383q346 0 346 -305q0 -59 -15.5 -171.5t-38.5 -237.5q-14 -78 -28.5 -151t-29.5 -137.5t-31.5 -115.5t-32.5 -82q-72 -133 -178.5 -179t-239.5 -46h-410zM201 119h256q109 0 180.5 38t112.5 105q23 39 40 89.5t27 103.5q18 98 40 195.5t38 195.5 q10 61 20.5 132t10.5 116q0 94 -51.5 152.5t-190.5 58.5h-252z" />
<glyph unicode="E" horiz-adv-x="907" d="M49 0l277 1425h733l-27 -120h-600l-100 -521h518l-23 -118h-516l-108 -545h600l-21 -121h-733z" />
<glyph unicode="F" horiz-adv-x="886" d="M49 0l277 1425h733l-25 -120h-600l-100 -525h516l-25 -118h-516l-127 -662h-133z" />
<glyph unicode="G" horiz-adv-x="1007" d="M84 315q0 39 8 98.5t19 110.5l77 398q18 96 48 188t82.5 165t135 117t205.5 44q170 0 260.5 -83t100.5 -218l-133 -39q-2 94 -62.5 154.5t-167.5 60.5q-86 0 -141 -31t-92 -79t-57.5 -108.5t-34.5 -121.5q-10 -31 -22.5 -92.5t-26 -131t-24.5 -132t-17 -93.5 q-10 -47 -17.5 -99t-7.5 -93q0 -45 11.5 -85t37 -71t68.5 -48t106 -17q127 0 204 69.5t112 173.5q12 35 21 71t18 75l26 131h-239l22 116h371q-12 -66 -25.5 -132t-27.5 -132q-10 -53 -24.5 -103t-33.5 -97q-53 -135 -157.5 -213t-270.5 -80q-178 0 -265 92t-87 235z" />
<glyph unicode="H" horiz-adv-x="1062" d="M49 0l279 1425h131l-127 -641h538l125 641h131l-276 -1425h-131l129 666h-537l-129 -666h-133z" />
<glyph unicode="I" horiz-adv-x="415" d="M59 0l279 1425h131l-276 -1425h-134z" />
<glyph unicode="J" horiz-adv-x="800" d="M-41 111l98 79q29 -37 82.5 -59t100.5 -22q49 0 94 12t81 43t62.5 82t42.5 129l205 1050h133l-207 -1065q-20 -102 -56 -173.5t-88 -115.5t-121 -63.5t-153 -19.5q-86 0 -159.5 31.5t-114.5 91.5z" />
<glyph unicode="K" horiz-adv-x="1030" d="M47 0l279 1425h129q-39 -201 -80 -402.5t-80 -401.5h4l317 372l373 432h148l-471 -561l256 -864h-138l-219 748q-78 -88 -155.5 -176.5t-155.5 -178.5l-78 -393h-129z" />
<glyph unicode="L" horiz-adv-x="849" d="M57 0l277 1425h131l-256 -1304h588l-23 -121h-717z" />
<glyph unicode="M" horiz-adv-x="1310" d="M47 0l279 1425h127l129 -579q23 -92 42 -183.5t40 -183.5h4l252 412l327 534h135l-278 -1425h-127q53 274 106.5 548.5t106.5 549.5h-6l-252 -416l-256 -403h-92q-31 123 -60.5 246.5t-58.5 248.5l-72 316h-4l-211 -1090h-131z" />
<glyph unicode="N" horiz-adv-x="1122" d="M47 0l279 1425h125l278 -825l105 -315h6l221 1140h127l-277 -1425h-125l-268 797l-117 354h-4q-20 -113 -49 -262.5t-59.5 -308t-60 -311t-52.5 -269.5h-129z" />
<glyph unicode="O" horiz-adv-x="1005" d="M94 269q-5 36 -5 72q0 49 9 101l113 570q14 76 45 152.5t84 136t132 97.5t194 38q104 0 179 -36t120 -96q45 -62 58 -138q6 -37 6 -74q0 -41 -7 -84l-107 -592q-18 -96 -54 -174t-92 -135.5t-132 -88t-174 -30.5q-115 0 -191.5 36.5t-121 99t-56.5 145.5zM221 314 q4 -60 32 -105t80 -72.5t132 -27.5q70 0 122 23.5t91 63.5t63.5 94t36.5 116l115 600q5 30 5 62q0 20 -2 40q-5 53 -32.5 98t-80 75t-138.5 30q-76 0 -129 -29t-89 -73t-57.5 -98t-31.5 -105l-109 -570q-9 -47 -9 -93q0 -14 1 -29z" />
<glyph unicode="P" horiz-adv-x="966" d="M49 0l279 1425h381q166 0 257 -78.5t91 -232.5q0 -115 -32 -210t-93.5 -165.5t-150.5 -109.5t-206 -39h-278l-115 -590h-133zM319 715h263q80 0 143 27.5t107.5 76.5t67 116.5t22.5 149.5q0 104 -59.5 162t-180.5 58h-248z" />
<glyph unicode="Q" horiz-adv-x="1011" d="M94 269q-5 36 -5 72q0 50 9 101l113 570q14 76 45 152.5t84 136t132 97.5t194 38q104 0 179 -36t120 -96.5t58 -137.5q6 -36 6 -74q0 -41 -7 -84l-107 -592q-29 -147 -98 -252l115 -109l-84 -84l-113 105q-106 -88 -272 -88q-115 0 -191.5 36.5t-121 99t-56.5 145.5z M221 314q4 -60 32 -105t80 -72.5t132 -27.5q53 0 97 14t79 41l-152 143l89 86l145 -139q20 35 32.5 73t22.5 79l115 600q5 30 5 62q0 20 -2 40q-5 53 -32.5 98t-80 75t-138.5 30q-76 0 -129 -29t-89 -73t-57.5 -98t-31.5 -105l-109 -570q-9 -47 -9 -93q0 -15 1 -29z" />
<glyph unicode="R" horiz-adv-x="1009" d="M49 0l277 1425h409q162 -1 245 -83q79 -79 79 -222v-14q-4 -184 -94.5 -296t-247.5 -151l151 -659h-143l-141 643l-279 -2q-6 -27 -15 -78t-21.5 -112.5t-26 -130t-24.5 -130t-21.5 -112.5t-16.5 -78h-131zM328 758h252q70 0 132 19.5t109 60.5t76 105.5t31 154.5v13 q0 95 -58 143q-62 52 -178 53h-258z" />
<glyph unicode="S" horiz-adv-x="952" d="M41 231l123 62q27 -78 93.5 -129t182.5 -51q82 0 140.5 26.5t97.5 71.5t57.5 101.5t18.5 115.5q0 55 -15.5 92t-44 63.5t-70.5 44t-96 36.5q-86 29 -147.5 60.5t-99 70.5t-55 87t-17.5 113q0 98 30.5 180t88 140.5t139.5 90.5t184 32q141 0 226.5 -59.5t119.5 -143.5 l-120 -72q-29 72 -91.5 110t-148.5 38q-72 0 -125 -24.5t-89 -65.5t-54.5 -95.5t-18.5 -111.5q0 -53 18.5 -88t53.5 -60.5t84 -46t110 -41.5q147 -51 215 -124.5t68 -204.5q0 -102 -31.5 -187.5t-92 -147t-148.5 -95t-203 -33.5q-160 0 -255 67.5t-128 177.5z" />
<glyph unicode="T" horiz-adv-x="811" d="M178 1307l23 118h798l-24 -118h-332l-254 -1307h-131l254 1307h-334z" />
<glyph unicode="U" horiz-adv-x="1032" d="M106 257q-4 30 -4 62q0 51 11 107l192 999h129q-8 -41 -22.5 -117.5t-34 -173t-40 -203t-38.5 -203.5t-33.5 -177t-23.5 -123q-10 -47 -10 -93q0 -11 1 -23q3 -56 26.5 -99t71.5 -69.5t126 -26.5q82 0 141 27.5t99 75.5t63.5 110.5t36.5 132.5l186 962h133 q-10 -53 -25.5 -130.5t-34 -169t-37 -188.5t-35.5 -188.5t-31.5 -170t-24.5 -129.5q-18 -98 -54 -182.5t-93.5 -147t-138.5 -97t-189 -34.5q-111 0 -183.5 34.5t-113 95t-50.5 139.5z" />
<glyph unicode="V" horiz-adv-x="933" d="M221 1425h129q2 -29 5 -84t7.5 -123.5t8.5 -143.5t7 -143.5t6 -123.5t5 -84q2 -37 6 -105.5t8.5 -143.5t7.5 -143.5t7 -105.5h8q20 45 50 114t61.5 141.5t61.5 140l50 112.5q4 10 27.5 62.5t56.5 126t70 157.5t69.5 158t56 126t27.5 62h144q-29 -59 -80 -171.5 t-114.5 -251t-133.5 -290t-134.5 -289.5t-115.5 -251t-78 -172h-129z" />
<glyph unicode="W" horiz-adv-x="1415" d="M229 1425h129q-1 -98 -1 -196v-99v-58q0 -118 -3 -236q0 -16 -1 -60.5t-2 -102t-2 -123t-2 -123.5t-2 -102t-1 -61h6l232 549l256 612h118q2 -55 4.5 -125.5t5.5 -153.5t5 -174t4 -184l16 -526h6q41 117 84 231.5t86 231.5q8 20 29 74.5t47.5 125t56 150.5t57 150.5 t48 125t29.5 74.5h137l-561 -1425h-125l-35 1165h-6l-199 -483q-23 -57 -61.5 -149.5t-79.5 -191.5t-80 -191.5t-64 -149.5h-124z" />
<glyph unicode="X" horiz-adv-x="884" d="M-66 0l502 735l-203 690h136l155 -567l375 567h148l-476 -690l220 -735h-136l-170 608l-405 -608h-146z" />
<glyph unicode="Y" horiz-adv-x="866" d="M209 1425h127q6 -29 20.5 -96t30.5 -141t30.5 -141.5t20.5 -96.5l47 -205h9q41 68 80.5 135.5t80.5 135.5q59 104 121 204.5t123 204.5h141l-514 -829l-114 -596h-127l114 596q-47 209 -95 415t-95 414z" />
<glyph unicode="Z" horiz-adv-x="819" d="M-33 0l25 121l807 1186h-549l24 118h691l-23 -114l-811 -1190h574l-23 -121h-715z" />
<glyph unicode="[" horiz-adv-x="458" d="M14 -215l320 1645h287l-19 -91h-170l-285 -1466h170l-18 -88h-285z" />
<glyph unicode="\" horiz-adv-x="530" d="M190 1468h101l104 -1529h-100z" />
<glyph unicode="]" horiz-adv-x="458" d="M-61 -217l14 90h170l285 1466h-170l18 91h285l-320 -1647h-282z" />
<glyph unicode="^" d="M98 702l490 719h92l209 -719h-107l-170 601q-6 -8 -35.5 -53.5t-72.5 -110t-91 -137t-91 -136t-73 -109.5t-36 -55h-115z" />
<glyph unicode="_" horiz-adv-x="1011" d="M-131 -250l22 103h1008l-20 -103h-1010z" />
<glyph unicode="`" horiz-adv-x="854" d="M440 1460l111 51l160 -346l-70 -30z" />
<glyph unicode="a" horiz-adv-x="897" d="M78 279q0 59 8 123.5t20 127.5q20 104 52 194.5t80.5 157t115 103.5t158.5 37q78 0 138.5 -34t88.5 -95l2 2q6 29 12.5 57.5t10.5 57.5h123l-197 -1010h-123l25 119h-6q-53 -66 -112.5 -98.5t-151.5 -32.5q-127 0 -185.5 82t-58.5 209zM207 301q0 -39 8 -73.5t26.5 -61.5 t50.5 -42t79 -15q53 0 95 21.5t72.5 57t52 79.5t36.5 87q12 39 22 82t18.5 84t13.5 77t9 60q3 24 3 46.5t-3 44.5q-6 44 -25.5 78t-53.5 53.5t-85 19.5q-66 0 -113.5 -27.5t-82.5 -80.5q-31 -47 -52.5 -116t-37.5 -140q-14 -66 -23.5 -126.5t-9.5 -107.5z" />
<glyph unicode="b" horiz-adv-x="851" d="M10 0l289 1483h125l-117 -600h4q43 55 115 96t158 41q66 0 111.5 -20.5t74.5 -55.5t41 -83t12 -105q0 -63 -10 -155.5t-33 -184.5q-18 -82 -50 -159t-79 -137.5t-111.5 -96t-152.5 -35.5q-166 0 -225 125h-4l-25 -113h-123zM207 285q0 -47 14.5 -87t49 -66t100.5 -26 q70 0 120 33t84.5 87.5t56 125t38.5 144.5q12 59 18 116.5t6 100.5q0 92 -38 139t-121 47q-47 0 -86 -17.5t-71 -45t-55.5 -63.5t-37.5 -73q-27 -76 -44.5 -168t-27.5 -155q-6 -45 -6 -92z" />
<glyph unicode="c" horiz-adv-x="768" d="M57 295q0 59 7.5 119.5t17.5 120.5q16 94 50 182t88 155.5t132 108.5t183 41q106 0 181 -51t91 -150l-117 -55q-10 66 -55 101.5t-111 35.5q-72 0 -125 -32.5t-91 -86t-61.5 -121t-37.5 -139.5q-23 -113 -23 -207q0 -96 40 -153.5t149 -57.5q68 0 126 36t87 98l108 -60 q-49 -86 -135 -139t-203 -53q-90 0 -148 26.5t-92 69.5t-47.5 98.5t-13.5 112.5z" />
<glyph unicode="d" horiz-adv-x="849" d="M57 264q2 66 11.5 134.5t19.5 127.5q18 98 48 188.5t78 158t116.5 108.5t163.5 41q78 0 136 -37t89 -94h2q29 150 58.5 298t58.5 296h125q-72 -375 -145 -742.5t-146 -742.5h-123q4 29 10 56.5t10 56.5q-2 0 -4 2q-53 -59 -115.5 -93t-150.5 -34q-131 0 -186.5 74.5 t-55.5 201.5zM184 289q0 -86 36 -133t138 -47q39 0 75 15t66.5 40.5t55.5 59.5t37 69q18 51 34.5 121.5t39.5 203.5q7 44 7 88v10q-1 50 -18.5 90t-53.5 65.5t-97 25.5q-70 0 -119 -33t-83 -87t-55.5 -122.5t-35.5 -138.5q-10 -59 -18.5 -119.5t-8.5 -107.5z" />
<glyph unicode="e" horiz-adv-x="839" d="M68 301q0 72 9 154t30.5 161.5t56.5 153.5t85 130t118.5 90t158.5 34q143 0 220 -66.5t77 -175.5q0 -164 -119.5 -260t-377.5 -96q-23 0 -59 1t-68 5q-4 -29 -7.5 -58.5t-3.5 -56.5q0 -90 38 -150.5t141 -60.5q61 0 128.5 34t104.5 89l102 -57q-55 -82 -143 -133 t-205 -51q-84 0 -139 27.5t-88 71.5t-46 100.5t-13 113.5zM219 545q29 -4 66 -6t61 -2q94 0 161.5 17t109.5 48t61.5 72t19.5 90q0 63 -48 103t-134 40q-123 0 -194.5 -99t-102.5 -263z" />
<glyph unicode="f" horiz-adv-x="495" d="M-164 -270l19 118q18 -4 26 -4h25q41 0 69.5 12.5t47 33t27.5 46t16 52.5l178 913h-127l22 107h127l41 211q12 55 31.5 105t52.5 88t82 59.5t121 21.5q16 0 30.5 -1t43.5 -5l-21 -117q-31 6 -59 6q-43 0 -72 -16.5t-45 -41t-25.5 -55t-15.5 -59.5l-39 -196h178l-20 -107 h-178l-170 -874q-12 -61 -30.5 -115.5t-52.5 -96.5t-85 -66.5t-127 -24.5q-31 0 -70 6z" />
<glyph unicode="g" horiz-adv-x="878" d="M-2 -244l104 68q16 -53 60.5 -87t116.5 -34q109 0 169.5 56.5t83.5 148.5q16 53 27.5 107.5t24.5 111.5h-4q-109 -135 -275 -135q-68 0 -114 21.5t-73.5 58.5t-38.5 86t-11 104q0 61 8 134t23.5 147.5t38 146.5t50.5 131q100 203 316 203q74 0 135 -34t88 -95q2 0 2 1 t2 1l25 113h123l-199 -1028q-14 -86 -42 -159t-75 -126t-116.5 -83t-167.5 -30q-96 0 -177.5 43t-103.5 129zM198 266q7 -65 42.5 -109t121.5 -44q49 0 89.5 18.5t73 49t56 69.5t35.5 80q23 70 40.5 162t25.5 172q4 25 4 50q0 17 -2 34q-4 43 -22.5 76.5t-52.5 55t-87 21.5 q-72 0 -121 -28.5t-82.5 -79t-55 -118t-36.5 -143.5q-12 -57 -25 -130q-7 -45 -7 -87q0 -25 3 -49z" />
<glyph unicode="h" horiz-adv-x="897" d="M29 0l286 1489h127l-118 -608h4q59 74 134 107.5t146 33.5q130 0 194 -85q46 -62 47 -149q0 -33 -7 -69q-2 -12 -9.5 -54t-19.5 -103.5t-26.5 -136.5t-29 -150.5t-27.5 -147.5t-23 -127h-129q20 104 41.5 210.5t39 200t30.5 164t20 105.5q6 30 6 59q0 11 -1 21 q-3 39 -20.5 68.5t-51.5 48t-87 18.5q-61 0 -108.5 -23.5t-83 -62.5t-58 -92t-35.5 -111l-116 -606h-125z" />
<glyph unicode="i" horiz-adv-x="378" d="M43 0l197 1012h127l-197 -1012h-127zM289 1272l24 133h131l-26 -133h-129z" />
<glyph unicode="j" horiz-adv-x="399" d="M-182 -410l20 119q4 0 12.5 -1t16.5 -1q78 0 112.5 42t51.5 128l221 1133h127l-227 -1164q-10 -55 -32 -102t-54.5 -82t-79.5 -54.5t-109 -19.5h-30.5t-28.5 2zM301 1272l27 131h131l-27 -131h-131z" />
<glyph unicode="k" horiz-adv-x="864" d="M31 0q12 61 34.5 179t51 262.5t59.5 303t58.5 303t50 262t34.5 179.5h125l-200 -1018h4q23 25 63.5 68t89 94t100.5 107.5t100 108.5t88 95t63 68h151l-356 -387l225 -625h-137l-184 532q-18 -18 -51 -55t-70 -77t-71 -75.5t-50 -54.5q-4 -16 -11.5 -54t-15.5 -81 t-15 -81t-11 -54h-125z" />
<glyph unicode="l" horiz-adv-x="425" d="M76 134q-2 17 -2 35q0 30 6 64l246 1254h127l-242 -1233q-6 -29 -5 -53.5t10 -45t31.5 -31.5t59.5 -11h29l-25 -119h-22q-12 -1 -24 -1q-51 1 -87 15q-45 18 -70.5 49t-31.5 77z" />
<glyph unicode="m" horiz-adv-x="1452" d="M41 0q47 254 97 504t98 504h124l-24 -125h6q55 70 126 102.5t144 32.5q92 0 151.5 -39t78.5 -111q133 152 303 152q86 0 138 -29.5t77.5 -79t29.5 -109.5q1 -13 0 -26q0 -48 -10 -96l-133 -680h-127l133 678q6 27 6 54q0 10 -1 21q-3 38 -19 68.5t-49 49t-84 18.5 q-59 0 -106.5 -23.5t-83 -61.5t-59 -88t-34.5 -106l-116 -610h-127l133 680q6 30 6 59q0 11 -1 21q-3 39 -21.5 69.5t-53.5 49t-90 18.5q-61 0 -107.5 -24.5t-79 -66.5t-54 -97.5t-31.5 -116.5l-117 -592h-123z" />
<glyph unicode="n" horiz-adv-x="892" d="M27 0l196 1012h125l-24 -131h4q59 76 134 108.5t146 32.5q66 0 114 -22.5t78 -61.5t42 -93q6 -29 7 -60q0 -27 -5 -56q0 -4 -8.5 -47t-20.5 -109.5t-28.5 -147.5t-32 -161t-28.5 -150.5t-21 -113.5h-130q8 39 21.5 103.5t28 138t30 150.5t27.5 140.5t19.5 103.5t7.5 44 q5 35 5 69v11q-1 39 -18.5 68.5t-52.5 48t-96 18.5q-59 0 -106.5 -23.5t-81 -62.5t-56 -91t-33.5 -110l-118 -608h-125z" />
<glyph unicode="o" horiz-adv-x="866" d="M70 281q0 82 8 161.5t28 157.5q23 88 53.5 162t71.5 125q53 66 124 100.5t167 34.5q80 0 137.5 -24.5t93 -67.5t53 -98.5t17.5 -116.5q0 -63 -10 -136t-25 -139q-23 -109 -55.5 -193.5t-81.5 -142t-118.5 -87t-165.5 -29.5q-86 0 -143.5 24.5t-91.5 66.5t-48 94t-14 108z M190 311q0 -41 7.5 -78.5t28 -67.5t56 -47.5t95.5 -17.5q90 0 145.5 46.5t85.5 123.5q18 45 34.5 101.5t29 116t19.5 117t7 104.5q0 98 -50 149t-136 51q-88 0 -154 -59q-43 -39 -73.5 -106.5t-52 -144.5t-32 -153.5t-10.5 -134.5z" />
<glyph unicode="p" horiz-adv-x="872" d="M-63 -406q66 356 135 708.5t139 709.5h125l-23 -115h4q53 59 116 93t153 34q117 0 178 -67.5t61 -198.5v-24q0 -56 -7 -118q-9 -77 -21 -141q-20 -102 -52 -191t-80.5 -153.5t-118 -101.5t-163.5 -37q-78 0 -133 34.5t-86 92.5h-4l-101 -525h-122zM214 272 q3 -45 20.5 -79.5t51 -57t89.5 -22.5q78 0 128 34.5t82.5 92t52 127t34.5 141.5q20 104 24 194q0 41 -7 77t-26.5 63.5t-53.5 43t-85 15.5q-86 0 -146.5 -56.5t-86.5 -131.5q-29 -86 -48.5 -175t-27.5 -173q-2 -27 -2 -53q0 -20 1 -40z" />
<glyph unicode="q" horiz-adv-x="882" d="M76 276q0 80 14 182.5t41 196.5q20 74 52 140.5t78 117t107.5 80t143.5 29.5q76 0 139.5 -35t85.5 -94h4q4 29 10.5 58.5t12.5 58.5h125q-70 -356 -136.5 -708.5t-136.5 -704.5h-129l105 526l-2 2q-47 -59 -114.5 -97t-149.5 -38q-72 0 -120 23.5t-77 63.5t-41 91 t-12 108zM209 299q0 -86 36 -138t132 -52q45 0 85 22.5t70.5 56t53 72.5t35.5 74q29 78 45 162t22 155q1 21 1 43t-1 45q-2 45 -19.5 81t-52.5 58.5t-96 22.5q-66 0 -112 -28.5t-79.5 -80t-56 -120t-36.5 -148.5q-12 -61 -19.5 -119.5t-7.5 -105.5z" />
<glyph unicode="r" horiz-adv-x="610" d="M41 0l197 1012h127l-31 -150h6q57 92 132 128q71 34 150 34h9q23 0 45 -5t35 -11l-49 -138q-20 10 -46 14.5t-45 4.5q-106 0 -183 -74t-99 -201l-121 -614h-127z" />
<glyph unicode="s" horiz-adv-x="806" d="M16 186l109 58q27 -66 79 -103t142 -37q45 0 89 13.5t77 39t53.5 64.5t20.5 90q0 39 -17.5 63.5t-46 42t-68.5 29t-85 23.5q-111 33 -171.5 83t-60.5 148q0 74 28 133.5t76 102.5t114.5 65.5t146.5 22.5q115 0 189.5 -48t105.5 -134l-115 -58q-43 119 -195 119 q-98 0 -158.5 -53t-60.5 -131q0 -63 53.5 -91t147.5 -53q55 -14 101 -32.5t79 -47t51.5 -69.5t18.5 -96q0 -160 -102.5 -251t-282.5 -91q-121 0 -205 50t-113 148z" />
<glyph unicode="t" horiz-adv-x="499" d="M110 139q-2 14 -2 28q0 28 7 58l131 680h-119q4 27 9 52.5t11 52.5h119l51 268h129q-14 -68 -27 -134.5t-26 -133.5h158q-6 -27 -11 -52.5t-10 -52.5h-157l-125 -647q-6 -31 -7 -56.5t8 -44t31.5 -29.5t63.5 -11h57l-22 -119h-78q-61 0 -101 18.5t-62 50t-28 72.5z" />
<glyph unicode="u" horiz-adv-x="901" d="M84 281q0 2 8 45t20.5 109.5t28 148.5t30.5 161.5t28.5 150.5t21.5 116h127q-8 -39 -20.5 -104.5t-26.5 -140.5t-28.5 -152.5t-27 -141t-19.5 -104.5t-7 -43q-6 -36 -6 -68v-16q2 -39 20.5 -69t54.5 -46t95 -16q100 0 172 72.5t94 176.5l125 652h127q-8 -41 -23.5 -121 t-35 -179.5t-41 -207t-40 -205.5t-33.5 -178t-23 -121h-127q2 8 5 25.5t7 37t8 37t6 25.5h-6q-59 -74 -132 -105.5t-144 -31.5q-135 0 -198 82q-46 60 -46 145q0 32 6 66z" />
<glyph unicode="v" horiz-adv-x="765" d="M90 1010h131l49 -496q8 -80 14.5 -166t6.5 -184h6q121 197 217 400.5t180 445.5h140q-51 -139 -105.5 -268.5t-116 -253t-131 -244.5t-151.5 -244h-127z" />
<glyph unicode="w" horiz-adv-x="1265" d="M94 1012h131l33 -559q4 -67 6 -131q1 -32 1 -69t-1 -79h6q100 182 190.5 395t176.5 443h145l39 -527q4 -69 7 -141q2 -43 2 -93q0 -33 -1 -69h5q106 193 194 391.5t168 438.5h133q-47 -143 -98 -271.5t-108.5 -251t-123 -243.5t-141.5 -246h-129l-39 563q-4 51 -6 120 q-1 34 -1 70.5t1 73.5h-8q-41 -119 -83 -224t-88 -204.5t-97.5 -198t-108.5 -200.5h-129z" />
<glyph unicode="x" horiz-adv-x="774" d="M-39 0l391 520q-6 12 -20.5 50t-31.5 88.5t-37.5 106.5t-38 106.5t-32 88t-20.5 52.5h143l123 -389q8 10 29.5 39.5t49.5 69.5l59.5 85l59.5 85t48.5 69.5t28.5 40.5h153l-377 -496q6 -14 21.5 -54t35 -92.5t41 -111.5t41 -111.5t35 -92.5t21.5 -54h-143l-135 408 q-8 -10 -31 -42t-52.5 -73t-62.5 -89t-62.5 -89t-52 -73t-30.5 -42h-154z" />
<glyph unicode="y" horiz-adv-x="753" d="M-119 -299q72 4 133.5 28.5t118.5 100.5q23 29 41.5 58.5t40.5 72.5l-123 1049h129q10 -111 20.5 -220.5t20.5 -220.5q6 -55 12.5 -119.5t10.5 -130t7 -129.5q2 -38 2 -71q0 -23 -1 -43h4q51 92 104.5 206.5t104.5 238.5t98 250t86 239h129q-129 -362 -259 -645 t-265 -506q-74 -127 -169 -196t-224 -69h-21v107z" />
<glyph unicode="z" horiz-adv-x="737" d="M-37 0l23 113l628 784h-446l20 113h592l-20 -109l-627 -782h473l-24 -119h-619z" />
<glyph unicode="{" horiz-adv-x="475" d="M76 575l14 80q45 8 78 36t56.5 67t37.5 86t25 96l55 279q16 92 72.5 149t142.5 57h90l-16 -84h-49q-37 0 -60.5 -16t-40 -40.5t-24.5 -55.5t-15 -58l-53 -272q-12 -66 -35.5 -115t-50.5 -82.5t-53.5 -54t-46.5 -26.5l-2 -7q39 -14 70.5 -80.5t9.5 -189.5l-56 -299 q-6 -33 -8 -64.5t4 -57t23.5 -41t48.5 -15.5h51l-16 -84h-74q-86 0 -126 60.5t-22 158.5l56 291q23 119 8.5 192.5t-94.5 89.5z" />
<glyph unicode="|" horiz-adv-x="391" d="M147 -330v1805h103v-1805h-103z" />
<glyph unicode="}" horiz-adv-x="475" d="M-82 -217l16 84h50q33 0 57.5 15.5t39.5 42t25.5 60t16.5 68.5l53 277q12 61 34.5 109t49.5 82t53.5 54.5t48.5 26.5l3 6q-18 6 -38 26.5t-33 54.5t-16.5 83t9.5 113l51 270q6 37 10 69.5t-2 59.5t-23.5 42t-50.5 15h-53l17 80h79q92 0 127 -60.5t17 -154.5l-56 -278 q-10 -49 -12 -97.5t5 -86t28.5 -64.5t62.5 -35l-14 -82q-86 -16 -129 -91t-65 -191l-58 -291q-16 -92 -72.5 -149.5t-146.5 -57.5h-84z" />
<glyph unicode="~" d="M55 494q51 70 113.5 107.5t132.5 37.5q49 0 91 -17.5t82 -38t79 -38t82 -17.5q41 0 77 19.5t76 73.5l74 -50q-47 -74 -105.5 -113.5t-133.5 -39.5q-43 0 -85 17.5t-85 38t-85 37.5t-85 17q-45 0 -79 -22.5t-79 -69.5z" />
<glyph unicode="&#xa1;" horiz-adv-x="450" d="M43 -416q23 111 52.5 249t59 282.5t58.5 284t51 249.5h98l-192 -1065h-127zM285 862q6 37 13 73t15 73h140q-6 -37 -13.5 -73t-15.5 -73h-139z" />
<glyph unicode="&#xa2;" horiz-adv-x="794" d="M57 295q0 59 7.5 119.5t17.5 120.5q16 92 48 177t82 151.5t123 108.5t169 48q10 51 19 101t20 102h71q-10 -51 -19 -101.5t-20 -101.5q92 -10 154 -61.5t78 -137.5l-117 -55q-10 59 -46 94t-91 41l-156 -795q61 6 112.5 41t78.5 93l108 -60q-47 -84 -129 -136t-192 -56 l-43 -219h-72l43 221q-74 8 -121 36.5t-74.5 70.5t-39 93.5t-11.5 104.5zM186 317q0 -86 31 -140t109 -68l153 790q-61 -10 -106 -45t-77 -87t-53.5 -114.5t-33.5 -128.5q-23 -113 -23 -207z" />
<glyph unicode="&#xa3;" d="M-12 0q4 27 9 53.5t9 52.5q92 113 157.5 238t90.5 281h-154l21 102h139v51q0 66 -13.5 132.5t-10.5 125.5q0 84 26.5 157t75.5 127t119.5 85t158.5 31q276 0 310 -273q-29 -10 -59.5 -18t-59.5 -19q-12 88 -55 140.5t-144 52.5q-111 0 -174 -86t-63 -215q0 -66 13 -140.5 t7 -150.5h254q-4 -27 -9 -51.5t-11 -50.5h-246q-29 -154 -80 -276t-137 -232h559l-23 -117h-710z" />
<glyph unicode="&#xa5;" d="M47 346q4 23 8 44.5t8 43.5h281l25 123q0 6 -1 26.5t-1 24.5h-269l17 84h237q-41 184 -77.5 366.5t-77.5 366.5h127q6 -31 17 -86t23.5 -122.5t27 -141.5t26.5 -141.5t23.5 -122.5t17.5 -86h2q31 55 65.5 114.5t80.5 138.5t108.5 186.5t150.5 260.5h131l-440 -733h244 q-4 -20 -8.5 -40.5t-8.5 -43.5h-274l-23 -57l-22 -117h287l-19 -88h-284l-70 -346h-119q4 23 13.5 72t19.5 102t20.5 101.5t14.5 70.5h-281z" />
<glyph unicode="&#xa7;" horiz-adv-x="897" d="M25 -29l75 78q49 -53 106.5 -74.5t125.5 -21.5q57 0 108.5 15.5t89 44t59 69.5t21.5 94q0 66 -52 119t-167 111q-117 59 -176 115.5t-59 146.5q0 92 50 161.5t136 122.5q-33 37 -50.5 74t-17.5 90q0 72 28 131.5t77 101.5t115.5 65.5t144.5 23.5q190 0 297 -113l-80 -88 q-51 53 -107.5 72.5t-115.5 19.5q-102 0 -167 -58.5t-65 -140.5q0 -35 17.5 -64.5t46.5 -54t65.5 -46t77.5 -41.5q45 -23 89 -50.5t80 -62.5t58.5 -78t22.5 -98q0 -90 -48 -161t-126 -124q49 -72 49 -160q0 -74 -28.5 -136t-82 -109t-127 -74t-163.5 -27q-92 0 -176 36 t-131 91zM279 692q0 -51 36.5 -90t89 -70.5t108.5 -57t93 -50.5q59 31 95 86t36 113q0 70 -54 113.5t-151 90.5q-25 12 -51 27t-55 31q-57 -27 -102 -80t-45 -113z" />
<glyph unicode="&#xa8;" horiz-adv-x="854" d="M319 1219l27 139h127l-27 -139h-127zM659 1219l27 139h127l-27 -139h-127z" />
<glyph unicode="&#xa9;" horiz-adv-x="1531" d="M106 698q0 154 47.5 286t134.5 228.5t210 150.5t274 54q150 0 271.5 -54t208.5 -150.5t134.5 -228.5t47.5 -286t-47.5 -283.5t-134.5 -226t-208.5 -150.5t-271.5 -54q-154 0 -276.5 54t-208.5 150.5t-133.5 226.5t-47.5 283zM207 698q0 -131 41 -244.5t114.5 -198.5 t178 -133t231.5 -48q129 0 232.5 48t176 133t112.5 198.5t40 244.5q0 133 -40 248t-113.5 199t-177 132t-230.5 48q-131 0 -235.5 -49t-178 -133t-112.5 -199t-39 -246zM508 524v322q0 119 71.5 195.5t196.5 76.5q98 0 169 -52t87 -148l-94 -33q-12 63 -54 102t-108 39 q-82 0 -126 -53t-44 -125v-326q0 -70 44 -123t126 -53q66 0 106 37t54 104l96 -30q-18 -100 -88 -152.5t-168 -52.5q-125 0 -196.5 74.5t-71.5 197.5z" />
<glyph unicode="&#xaa;" horiz-adv-x="616" d="M113 754q0 41 6 87t14 87q12 68 34.5 125t56.5 99t81 66.5t113 24.5q47 0 86 -18.5t59 -53.5l15 66h102q-35 -166 -66.5 -334t-64.5 -334h-100l14 70q-33 -35 -77 -56.5t-101 -21.5q-90 0 -131 53.5t-41 139.5zM219 772q0 -51 22.5 -83t82.5 -32q37 0 62.5 13.5t44 35 t31.5 48t23 53.5q16 53 28.5 111.5t16.5 107.5q4 47 -24.5 84t-87.5 37q-49 0 -80 -24.5t-53 -67.5q-12 -27 -24.5 -64t-22 -77t-14.5 -77.5t-5 -64.5z" />
<glyph unicode="&#xab;" horiz-adv-x="839" d="M104 469l306 373h127l-304 -375l156 -373h-125zM410 469l303 373h129l-305 -375l155 -373h-123z" />
<glyph unicode="&#xac;" d="M63 543l21 102h786l-90 -465h-108l69 363h-678z" />
<glyph unicode="&#xad;" horiz-adv-x="733" d="M119 508l24 117h537l-23 -117h-538z" />
<glyph unicode="&#xae;" horiz-adv-x="1064" d="M125 1006q0 94 28.5 175t83 139t130 92t168.5 34q92 0 165.5 -34t127 -92t82 -139t28.5 -175t-28.5 -174t-82 -138.5t-127 -91.5t-165.5 -33q-94 0 -170 33t-129.5 91.5t-82 138t-28.5 174.5zM197 1008q0 -80 23.5 -148.5t68.5 -119t106.5 -78t139.5 -27.5t139 28.5 t104 79t65.5 119t22.5 146.5q0 80 -23.5 148.5t-66.5 118.5t-104 79.5t-137 29.5q-78 0 -140.5 -29.5t-106.5 -79.5t-67.5 -119t-23.5 -148zM385 743v521h170q66 0 108 -39t42 -111q0 -47 -24 -85t-69 -56l103 -230h-82q-23 55 -46.5 110.5t-45.5 111.5h-84v-222h-72z M457 1028h84q39 0 64.5 20.5t25.5 65.5q0 41 -24.5 62.5t-59.5 21.5h-90v-170z" />
<glyph unicode="&#xaf;" horiz-adv-x="862" d="M346 1221l23 114h499l-24 -114h-498z" />
<glyph unicode="&#xb0;" horiz-adv-x="671" d="M109 1202q0 47 18 89t49 74t73 50.5t91 18.5q51 0 93 -18.5t73 -50.5t48 -74t17 -89q0 -49 -18 -91t-49 -72.5t-73 -49t-91 -18.5t-91 18.5t-73 49t-49 72.5t-18 91zM193 1202q0 -63 41.5 -106t105.5 -43q61 0 103 43t42 106q0 61 -42 104.5t-103 43.5q-59 0 -103 -43 t-44 -105z" />
<glyph unicode="&#xb1;" d="M-33 20l21 103h782l-20 -103h-783zM74 565l20 101h340l68 350h98l-65 -350h339l-20 -101h-338l-70 -350h-100l70 350h-342z" />
<glyph unicode="&#xb4;" horiz-adv-x="856" d="M520 1171l201 332l119 -43l-248 -321z" />
<glyph unicode="&#xb6;" horiz-adv-x="954" d="M150 985q0 82 25.5 167t74.5 154.5t124 112.5t173 43h506q-6 -29 -11.5 -59.5t-9.5 -61.5h-102l-242 -1507h-119l242 1507h-162l-239 -1507h-119l135 864q-131 0 -203.5 73t-72.5 214z" />
<glyph unicode="&#xb7;" horiz-adv-x="380" d="M145 461l31 166h156l-33 -166h-154z" />
<glyph unicode="&#xb8;" horiz-adv-x="874" d="M102 -385q8 16 15.5 34.5t17.5 35.5q35 -16 69 -21.5t60 -5.5q41 0 78 22.5t37 69.5q0 41 -28.5 60.5t-78.5 19.5h-12q-6 8 -13 14t-16 15l91 184h34.5t34.5 -2q-16 -35 -31.5 -68.5t-35.5 -74.5q90 -8 122.5 -50.5t32.5 -85.5q0 -29 -12 -60.5t-39 -58t-69 -43 t-99 -16.5q-41 0 -82 7.5t-76 23.5z" />
<glyph unicode="&#xba;" horiz-adv-x="598" d="M113 766q0 47 6 92t16 86q16 63 37 117.5t47 89.5q35 45 85 69.5t118 24.5q115 0 167 -62.5t52 -148.5q0 -41 -6 -87t-17 -87q-29 -141 -94 -220t-196 -79q-61 0 -102.5 16.5t-66 45t-35.5 65.5t-11 78zM213 774q0 -47 23.5 -83t95.5 -36q53 0 87 26t54 67 q14 29 26.5 65.5t20.5 75.5t13.5 75.5t5.5 67.5q0 57 -32 89t-89 32q-63 0 -105 -43q-23 -23 -41 -62.5t-30 -84.5q-12 -47 -20.5 -99.5t-8.5 -89.5z" />
<glyph unicode="&#xbb;" horiz-adv-x="839" d="M31 94l309 377l-162 371h125l162 -373l-307 -375h-127zM336 94l307 377l-160 371h123l164 -373l-309 -375h-125z" />
<glyph unicode="&#xbf;" horiz-adv-x="847" d="M61 -131q0 61 12.5 109.5t34 89.5t48 75.5t55.5 65.5q41 47 81 86t72.5 76t56 75.5t32.5 83.5l26 134h131q-2 -12 -6 -32t-8 -41.5t-9 -41t-7 -31.5q-18 -88 -80 -162.5t-129.5 -147.5t-120.5 -146.5t-55 -157.5q0 -41 10 -78t32.5 -64.5t61.5 -44t94 -16.5q51 0 95 18.5 t78 51t55.5 75.5t31.5 93l129 -29q-43 -174 -146 -252t-259 -78q-145 0 -230.5 78t-85.5 211zM510 864q18 76 31 150h139l-29 -150h-141z" />
<glyph unicode="&#xc0;" horiz-adv-x="989" d="M-61 0q172 358 342 712.5t344 712.5h125q35 -358 67.5 -712.5t67.5 -712.5h-131l-25 342h-496q-39 -86 -78.5 -171t-80.5 -171h-135zM287 459h434q-10 111 -18.5 217t-18.5 217q-8 86 -13 174t-14 174h-6l-153 -338zM377 1681l67 103l304 -225l-41 -64z" />
<glyph unicode="&#xc1;" horiz-adv-x="989" d="M-61 0q172 358 342 712.5t344 712.5h125q35 -358 67.5 -712.5t67.5 -712.5h-131l-25 342h-496q-39 -86 -78.5 -171t-80.5 -171h-135zM287 459h434q-10 111 -18.5 217t-18.5 217q-8 86 -13 174t-14 174h-6l-153 -338zM635 1552l326 230q18 -25 36.5 -49.5t34.5 -51.5 q-90 -47 -177 -95t-177 -95z" />
<glyph unicode="&#xc2;" horiz-adv-x="989" d="M-61 0q172 358 342 712.5t344 712.5h125q35 -358 67.5 -712.5t67.5 -712.5h-131l-25 342h-496q-39 -86 -78.5 -171t-80.5 -171h-135zM287 459h434q-10 111 -18.5 217t-18.5 217q-8 86 -13 174t-14 174h-6l-153 -338zM381 1554l317 236h86l213 -234l-57 -51l-217 162 l-299 -166z" />
<glyph unicode="&#xc3;" horiz-adv-x="989" d="M-61 0q172 358 342 712.5t344 712.5h125q35 -358 67.5 -712.5t67.5 -712.5h-131l-25 342h-496q-39 -86 -78.5 -171t-80.5 -171h-135zM287 459h434q-10 111 -18.5 217t-18.5 217q-8 86 -13 174t-14 174h-6l-153 -338zM397 1579q41 70 95.5 105.5t107.5 35.5q33 0 63.5 -13 t60.5 -28.5t58.5 -28t59.5 -12.5q29 0 57.5 17.5t63.5 62.5l69 -45q-41 -82 -96 -114.5t-105 -32.5q-35 0 -66.5 12t-61 27.5t-58.5 29t-55 13.5q-31 0 -58.5 -20.5t-62.5 -57.5z" />
<glyph unicode="&#xc4;" horiz-adv-x="989" d="M-61 0q172 358 342 712.5t344 712.5h125q35 -358 67.5 -712.5t67.5 -712.5h-131l-25 342h-496q-39 -86 -78.5 -171t-80.5 -171h-135zM287 459h434q-10 111 -18.5 217t-18.5 217q-8 86 -13 174t-14 174h-6l-153 -338zM473 1532l25 137h131l-27 -137h-129zM809 1532l29 137 h129l-27 -137h-131z" />
<glyph unicode="&#xc5;" horiz-adv-x="989" d="M-61 0q172 358 342 712.5t344 712.5h125q35 -358 67.5 -712.5t67.5 -712.5h-131l-25 342h-496q-39 -86 -78.5 -171t-80.5 -171h-135zM287 459h434q-10 111 -18.5 217t-18.5 217q-8 86 -13 174t-14 174h-6l-153 -338zM549 1610q0 45 17.5 85t48 69.5t71.5 47t86 17.5 q68 0 112 -42t44 -108q0 -47 -19.5 -88t-50.5 -69.5t-72 -45t-84 -16.5q-68 0 -110.5 42t-42.5 108zM625 1624q0 -41 24.5 -66.5t65.5 -25.5q27 0 51.5 10t42.5 28.5t29.5 43t11.5 51.5q0 39 -25.5 64.5t-66.5 25.5q-51 0 -92 -39t-41 -92z" />
<glyph unicode="&#xc6;" horiz-adv-x="1611" d="M-37 0q229 358 459.5 712.5t460.5 712.5h813l-17 -122h-608l-74 -521h525q-4 -29 -8.5 -58.5t-8.5 -57.5h-524q-18 -135 -36.5 -270.5t-39.5 -270.5h608l-16 -125h-739q14 96 26.5 193.5t26.5 195.5h-461q-63 -98 -125.5 -195.5t-126.5 -193.5h-135zM428 508h399 q29 199 57.5 396.5t57.5 398.5h-2z" />
<glyph unicode="&#xc7;" horiz-adv-x="948" d="M92 315q0 39 8.5 98.5t18.5 110.5l78 398q18 96 47.5 188t82 165t135.5 117t206 44q170 0 260 -83t100 -218l-133 -39q-2 94 -62.5 154.5t-166.5 60.5q-86 0 -141.5 -31t-92.5 -79t-57.5 -108.5t-34.5 -121.5q-10 -31 -22.5 -92.5t-25.5 -131t-24.5 -132t-17.5 -93.5 q-10 -47 -17.5 -99t-7.5 -93q0 -45 11.5 -85t37 -71t68.5 -48t107 -17q109 0 186.5 58t118.5 169l127 -45q-53 -147 -163 -223t-263 -80q-10 -23 -19.5 -44.5t-21.5 -45.5q90 -8 122.5 -50.5t32.5 -85.5q0 -29 -12 -60.5t-38.5 -58t-68.5 -43t-100 -16.5q-41 0 -82 7.5 t-75 23.5q8 16 15 34.5t17 35.5q35 -16 69 -21.5t60 -5.5q41 0 78 22.5t37 69.5q0 41 -28.5 60.5t-78.5 19.5h-12q-6 8 -13 14t-15 15q16 35 32.5 66.5t32.5 66.5q-150 14 -222.5 103t-72.5 220z" />
<glyph unicode="&#xc8;" horiz-adv-x="907" d="M49 0l277 1425h733l-27 -120h-600l-100 -521h518l-23 -118h-516l-108 -545h600l-21 -121h-733zM399 1681l68 103l303 -225l-41 -64z" />
<glyph unicode="&#xc9;" horiz-adv-x="907" d="M49 0l277 1425h733l-27 -120h-600l-100 -521h518l-23 -118h-516l-108 -545h600l-21 -121h-733zM602 1554l328 230l74 -101l-357 -192z" />
<glyph unicode="&#xca;" horiz-adv-x="907" d="M49 0l277 1425h733l-27 -120h-600l-100 -521h518l-23 -118h-516l-108 -545h600l-21 -121h-733zM393 1554l318 236h86l213 -234l-58 -51l-217 162l-299 -166z" />
<glyph unicode="&#xcb;" horiz-adv-x="907" d="M49 0l277 1425h733l-27 -120h-600l-100 -521h518l-23 -118h-516l-108 -545h600l-21 -121h-733zM463 1532l24 137h131l-26 -137h-129zM799 1532l28 137h129l-26 -137h-131z" />
<glyph unicode="&#xcc;" horiz-adv-x="415" d="M59 0l279 1425h131l-276 -1425h-134zM96 1681l68 103l303 -225l-41 -64z" />
<glyph unicode="&#xcd;" horiz-adv-x="415" d="M59 0l279 1425h131l-276 -1425h-134zM379 1554l328 230l71 -101l-356 -192z" />
<glyph unicode="&#xce;" horiz-adv-x="415" d="M59 0l279 1425h131l-276 -1425h-134zM109 1554l317 236h86l213 -234l-57 -51l-217 162l-299 -166z" />
<glyph unicode="&#xcf;" horiz-adv-x="415" d="M59 0l279 1425h131l-276 -1425h-134zM193 1544l26 137h127l-24 -137h-129zM526 1544l27 137h129l-27 -137h-129z" />
<glyph unicode="&#xd0;" horiz-adv-x="1044" d="M37 698q6 25 11 49.5t9 49.5h144l123 628h383q346 0 346 -305q0 -59 -15.5 -171.5t-38.5 -237.5q-14 -78 -28.5 -151t-29.5 -137.5t-31.5 -115.5t-32.5 -82q-72 -133 -178.5 -179t-239.5 -46h-410l133 698h-145zM201 119h256q109 0 180.5 38t112.5 105q23 39 40 89.5 t27 103.5q18 98 40 195.5t38 195.5q10 61 20.5 132t10.5 116q0 94 -51.5 152.5t-190.5 58.5h-252q-27 -129 -51.5 -255t-48.5 -253h196l-20 -99h-195z" />
<glyph unicode="&#xd1;" horiz-adv-x="1122" d="M47 0l279 1425h125l278 -825l105 -315h6l221 1140h127l-277 -1425h-125l-268 797l-117 354h-4q-20 -113 -49 -262.5t-59.5 -308t-60 -311t-52.5 -269.5h-129zM463 1561q41 70 95.5 105.5t107.5 35.5q33 0 63.5 -13.5t60 -28.5t58.5 -27.5t59 -12.5q29 0 57.5 17.5 t63.5 62.5l70 -45q-41 -82 -96.5 -115t-104.5 -33q-35 0 -66.5 12.5t-61.5 28t-58.5 28.5t-55.5 13q-31 0 -58.5 -20.5t-61.5 -57.5z" />
<glyph unicode="&#xd2;" horiz-adv-x="1005" d="M94 269q-12 83 4 173l113 570q14 76 45 152.5t84 136t132 97.5t194 38q104 0 179 -36t120 -96.5t58 -137t-1 -158.5l-107 -592q-18 -96 -54 -174t-92 -135.5t-132 -88t-174 -30.5q-115 0 -191.5 36.5t-121 99t-56.5 145.5zM221 313.5q4 -59.5 32 -104.5t80 -72.5 t132 -27.5q70 0 122 23.5t91 63.5t63.5 94t36.5 116l115 600q8 49 3 102t-32.5 98t-80 75t-138.5 30q-76 0 -129 -29t-89 -73t-57.5 -98t-31.5 -105l-109 -570q-12 -63 -8 -122.5zM461 1681l67 103l303 -225l-40 -64z" />
<glyph unicode="&#xd3;" horiz-adv-x="1005" d="M94 269q-12 83 4 173l113 570q14 76 45 152.5t84 136t132 97.5t194 38q104 0 179 -36t120 -96.5t58 -137t-1 -158.5l-107 -592q-18 -96 -54 -174t-92 -135.5t-132 -88t-174 -30.5q-115 0 -191.5 36.5t-121 99t-56.5 145.5zM221 313.5q4 -59.5 32 -104.5t80 -72.5 t132 -27.5q70 0 122 23.5t91 63.5t63.5 94t36.5 116l115 600q8 49 3 102t-32.5 98t-80 75t-138.5 30q-76 0 -129 -29t-89 -73t-57.5 -98t-31.5 -105l-109 -570q-12 -63 -8 -122.5zM621 1552l325 232l72 -101l-356 -194z" />
<glyph unicode="&#xd4;" horiz-adv-x="1005" d="M94 269q-12 83 4 173l113 570q14 76 45 152.5t84 136t132 97.5t194 38q104 0 179 -36t120 -96.5t58 -137t-1 -158.5l-107 -592q-18 -96 -54 -174t-92 -135.5t-132 -88t-174 -30.5q-115 0 -191.5 36.5t-121 99t-56.5 145.5zM221 313.5q4 -59.5 32 -104.5t80 -72.5 t132 -27.5q70 0 122 23.5t91 63.5t63.5 94t36.5 116l115 600q8 49 3 102t-32.5 98t-80 75t-138.5 30q-76 0 -129 -29t-89 -73t-57.5 -98t-31.5 -105l-109 -570q-12 -63 -8 -122.5zM403 1554l318 236h86l213 -234l-57 -51l-218 162l-299 -166z" />
<glyph unicode="&#xd5;" horiz-adv-x="1005" d="M94 269q-12 83 4 173l113 570q14 76 45 152.5t84 136t132 97.5t194 38q104 0 179 -36t120 -96.5t58 -137t-1 -158.5l-107 -592q-18 -96 -54 -174t-92 -135.5t-132 -88t-174 -30.5q-115 0 -191.5 36.5t-121 99t-56.5 145.5zM221 313.5q4 -59.5 32 -104.5t80 -72.5 t132 -27.5q70 0 122 23.5t91 63.5t63.5 94t36.5 116l115 600q8 49 3 102t-32.5 98t-80 75t-138.5 30q-76 0 -129 -29t-89 -73t-57.5 -98t-31.5 -105l-109 -570q-12 -63 -8 -122.5zM426 1579q41 70 95.5 105.5t107.5 35.5q33 0 63.5 -13t60 -28.5t58.5 -28t59 -12.5 q29 0 57.5 17.5t63.5 62.5l70 -45q-41 -82 -96.5 -114.5t-104.5 -32.5q-35 0 -66.5 12t-61.5 27.5t-58.5 29t-55.5 13.5q-31 0 -58.5 -20.5t-61.5 -57.5z" />
<glyph unicode="&#xd6;" horiz-adv-x="1005" d="M94 269q-12 83 4 173l113 570q14 76 45 152.5t84 136t132 97.5t194 38q104 0 179 -36t120 -96.5t58 -137t-1 -158.5l-107 -592q-18 -96 -54 -174t-92 -135.5t-132 -88t-174 -30.5q-115 0 -191.5 36.5t-121 99t-56.5 145.5zM221 313.5q4 -59.5 32 -104.5t80 -72.5 t132 -27.5q70 0 122 23.5t91 63.5t63.5 94t36.5 116l115 600q8 49 3 102t-32.5 98t-80 75t-138.5 30q-76 0 -129 -29t-89 -73t-57.5 -98t-31.5 -105l-109 -570q-12 -63 -8 -122.5zM489 1532l25 137h131l-27 -137h-129zM825 1532l29 137h129l-27 -137h-131z" />
<glyph unicode="&#xd8;" horiz-adv-x="1005" d="M2 29l115 155q-47 113 -19 258l113 570q14 76 45 152.5t84 136t132 97.5t194 38q100 0 172.5 -34t117.5 -89l93 125l57 -39l-111 -148q27 -53 33 -115.5t-6 -127.5l-107 -592q-18 -96 -54 -174t-92 -135.5t-132 -88t-174 -30.5q-113 0 -188.5 35.5t-120.5 95.5l-97 -129z M219 322l649 874q-27 49 -80 82t-143 33q-76 0 -129 -29t-89 -73t-57.5 -98t-31.5 -105l-109 -570q-12 -61 -10 -114zM240 236q25 -57 79 -92t146 -35q70 0 122 23.5t91 63.5t63.5 94t36.5 116l115 600q4 27 5 54t-3 56z" />
<glyph unicode="&#xd9;" horiz-adv-x="1032" d="M106.5 257q-10.5 79 6.5 169l192 999h129q-8 -41 -22.5 -117.5t-34 -173t-40 -203t-38.5 -203.5t-33.5 -177t-23.5 -123q-12 -59 -9 -115.5t26.5 -99.5t71.5 -69.5t126 -26.5q82 0 141 27.5t99 75.5t63.5 110.5t36.5 132.5l186 962h133q-10 -53 -25.5 -130.5t-34 -169 t-37 -188.5t-35.5 -188.5t-31.5 -170t-24.5 -129.5q-18 -98 -54 -182.5t-93.5 -147t-138.5 -97t-189 -34.5q-111 0 -183.5 34.5t-112.5 95t-50.5 139.5zM444 1681l68 103l303 -225l-41 -64z" />
<glyph unicode="&#xda;" horiz-adv-x="1032" d="M106.5 257q-10.5 79 6.5 169l192 999h129q-8 -41 -22.5 -117.5t-34 -173t-40 -203t-38.5 -203.5t-33.5 -177t-23.5 -123q-12 -59 -9 -115.5t26.5 -99.5t71.5 -69.5t126 -26.5q82 0 141 27.5t99 75.5t63.5 110.5t36.5 132.5l186 962h133q-10 -53 -25.5 -130.5t-34 -169 t-37 -188.5t-35.5 -188.5t-31.5 -170t-24.5 -129.5q-18 -98 -54 -182.5t-93.5 -147t-138.5 -97t-189 -34.5q-111 0 -183.5 34.5t-112.5 95t-50.5 139.5zM631 1552l325 232l72 -101l-356 -194z" />
<glyph unicode="&#xdb;" horiz-adv-x="1032" d="M106.5 257q-10.5 79 6.5 169l192 999h129q-8 -41 -22.5 -117.5t-34 -173t-40 -203t-38.5 -203.5t-33.5 -177t-23.5 -123q-12 -59 -9 -115.5t26.5 -99.5t71.5 -69.5t126 -26.5q82 0 141 27.5t99 75.5t63.5 110.5t36.5 132.5l186 962h133q-10 -53 -25.5 -130.5t-34 -169 t-37 -188.5t-35.5 -188.5t-31.5 -170t-24.5 -129.5q-18 -98 -54 -182.5t-93.5 -147t-138.5 -97t-189 -34.5q-111 0 -183.5 34.5t-112.5 95t-50.5 139.5zM426 1554l317 236h86l213 -234l-57 -51l-217 162l-299 -166z" />
<glyph unicode="&#xdc;" horiz-adv-x="1032" d="M106.5 257q-10.5 79 6.5 169l192 999h129q-8 -41 -22.5 -117.5t-34 -173t-40 -203t-38.5 -203.5t-33.5 -177t-23.5 -123q-12 -59 -9 -115.5t26.5 -99.5t71.5 -69.5t126 -26.5q82 0 141 27.5t99 75.5t63.5 110.5t36.5 132.5l186 962h133q-10 -53 -25.5 -130.5t-34 -169 t-37 -188.5t-35.5 -188.5t-31.5 -170t-24.5 -129.5q-18 -98 -54 -182.5t-93.5 -147t-138.5 -97t-189 -34.5q-111 0 -183.5 34.5t-112.5 95t-50.5 139.5zM487 1532l25 137h131l-27 -137h-129zM823 1532l29 137h129l-27 -137h-131z" />
<glyph unicode="&#xdd;" horiz-adv-x="866" d="M209 1425h127q6 -29 20.5 -96t30.5 -141t30.5 -141.5t20.5 -96.5l47 -205h9q41 68 80.5 135.5t80.5 135.5q59 104 121 204.5t123 204.5h141l-514 -829l-114 -596h-127l114 596q-47 209 -95 415t-95 414zM528 1552l328 232q6 -8 15.5 -21.5t19.5 -29t19.5 -29.5t15.5 -21 q-88 -49 -176.5 -97t-180.5 -97q-10 16 -20 31.5t-21 31.5z" />
<glyph unicode="&#xde;" horiz-adv-x="978" d="M49 0q16 78 39 192.5t48.5 246.5t52 272.5t52 272.5t47 245.5t38.5 191.5h131l-54 -276h265q164 0 252 -80t88 -227q0 -94 -26 -188.5t-83 -170.5t-151.5 -123t-229.5 -47h-276q-4 -25 -12.5 -66.5t-17.5 -86.5t-17.5 -88t-12.5 -68h-133zM266 432h266q86 0 149.5 32 t105.5 85t62.5 119.5t20.5 138.5q0 96 -55 155.5t-172 59.5h-262z" />
<glyph unicode="&#xdf;" horiz-adv-x="890" d="M25 0q53 274 105 545.5t106 546.5q16 84 43.5 155.5t71.5 123.5t106.5 82t150.5 30q152 0 225.5 -78t73.5 -211q0 -113 -50 -201t-152 -131q66 -29 93 -89t27 -134q0 -102 -18.5 -217t-65.5 -211t-128 -158.5t-205 -62.5h-68l20 108h31q88 0 145.5 51.5t91.5 127 t47 162.5t13 161q0 37 -6 72t-21.5 63.5t-43 46t-72.5 17.5h-41q6 29 11 56.5t11 53.5h35q57 0 98 27t68 69t39 91t12 94q0 78 -45 127t-135 49q-49 0 -86 -18.5t-63.5 -49t-43 -69.5t-28.5 -80q-2 -8 -12.5 -58.5t-25.5 -127t-34.5 -174t-39 -199t-39 -200.5t-36 -180 t-27.5 -137.5t-13 -72.5h-125z" />
<glyph unicode="&#xe0;" horiz-adv-x="897" d="M78 279q0 59 8 123.5t20 127.5q20 104 52 194.5t80.5 157t115 103.5t158.5 37q78 0 138.5 -34t88.5 -95l2 2q6 29 12.5 57.5t10.5 57.5h123l-197 -1010h-123l25 119h-6q-53 -66 -112.5 -98.5t-151.5 -32.5q-127 0 -185.5 82t-58.5 209zM207 301q0 -39 8 -73.5t26.5 -61.5 t50.5 -42t79 -15q53 0 95 21.5t72.5 57t52 79.5t36.5 87q12 39 22 82t18.5 84t13.5 77t9 60q6 47 0 91.5t-25.5 78t-53.5 53t-85 19.5q-66 0 -113.5 -27.5t-82.5 -80.5q-31 -47 -52.5 -116t-37.5 -140q-14 -66 -23.5 -126.5t-9.5 -107.5zM412 1460l110 51l160 -346l-70 -30z " />
<glyph unicode="&#xe1;" horiz-adv-x="897" d="M78 279q0 59 8 123.5t20 127.5q20 104 52 194.5t80.5 157t115 103.5t158.5 37q78 0 138.5 -34t88.5 -95l2 2q6 29 12.5 57.5t10.5 57.5h123l-197 -1010h-123l25 119h-6q-53 -66 -112.5 -98.5t-151.5 -32.5q-127 0 -185.5 82t-58.5 209zM207 301q0 -39 8 -73.5t26.5 -61.5 t50.5 -42t79 -15q53 0 95 21.5t72.5 57t52 79.5t36.5 87q12 39 22 82t18.5 84t13.5 77t9 60q6 47 0 91.5t-25.5 78t-53.5 53t-85 19.5q-66 0 -113.5 -27.5t-82.5 -80.5q-31 -47 -52.5 -116t-37.5 -140q-14 -66 -23.5 -126.5t-9.5 -107.5zM508 1171l201 332l118 -43 l-247 -321z" />
<glyph unicode="&#xe2;" horiz-adv-x="897" d="M78 279q0 59 8 123.5t20 127.5q20 104 52 194.5t80.5 157t115 103.5t158.5 37q78 0 138.5 -34t88.5 -95l2 2q6 29 12.5 57.5t10.5 57.5h123l-197 -1010h-123l25 119h-6q-53 -66 -112.5 -98.5t-151.5 -32.5q-127 0 -185.5 82t-58.5 209zM207 301q0 -39 8 -73.5t26.5 -61.5 t50.5 -42t79 -15q53 0 95 21.5t72.5 57t52 79.5t36.5 87q12 39 22 82t18.5 84t13.5 77t9 60q6 47 0 91.5t-25.5 78t-53.5 53t-85 19.5q-66 0 -113.5 -27.5t-82.5 -80.5q-31 -47 -52.5 -116t-37.5 -140q-14 -66 -23.5 -126.5t-9.5 -107.5zM293 1192l321 276h88l205 -272 l-67 -55l-199 205l-299 -207z" />
<glyph unicode="&#xe3;" horiz-adv-x="897" d="M78 279q0 59 8 123.5t20 127.5q20 104 52 194.5t80.5 157t115 103.5t158.5 37q78 0 138.5 -34t88.5 -95l2 2q6 29 12.5 57.5t10.5 57.5h123l-197 -1010h-123l25 119h-6q-53 -66 -112.5 -98.5t-151.5 -32.5q-127 0 -185.5 82t-58.5 209zM207 301q0 -39 8 -73.5t26.5 -61.5 t50.5 -42t79 -15q53 0 95 21.5t72.5 57t52 79.5t36.5 87q12 39 22 82t18.5 84t13.5 77t9 60q6 47 0 91.5t-25.5 78t-53.5 53t-85 19.5q-66 0 -113.5 -27.5t-82.5 -80.5q-31 -47 -52.5 -116t-37.5 -140q-14 -66 -23.5 -126.5t-9.5 -107.5zM305 1245q41 70 95.5 105.5 t107.5 35.5q33 0 63.5 -13t60.5 -28.5t58.5 -27.5t59.5 -12q29 0 57.5 17t62.5 62l70 -45q-41 -82 -96.5 -114.5t-104.5 -32.5q-35 0 -66.5 12.5t-61 27.5t-58.5 28.5t-55 13.5q-31 0 -58.5 -20.5t-62.5 -57.5z" />
<glyph unicode="&#xe4;" horiz-adv-x="897" d="M78 279q0 59 8 123.5t20 127.5q20 104 52 194.5t80.5 157t115 103.5t158.5 37q78 0 138.5 -34t88.5 -95l2 2q6 29 12.5 57.5t10.5 57.5h123l-197 -1010h-123l25 119h-6q-53 -66 -112.5 -98.5t-151.5 -32.5q-127 0 -185.5 82t-58.5 209zM207 301q0 -39 8 -73.5t26.5 -61.5 t50.5 -42t79 -15q53 0 95 21.5t72.5 57t52 79.5t36.5 87q12 39 22 82t18.5 84t13.5 77t9 60q6 47 0 91.5t-25.5 78t-53.5 53t-85 19.5q-66 0 -113.5 -27.5t-82.5 -80.5q-31 -47 -52.5 -116t-37.5 -140q-14 -66 -23.5 -126.5t-9.5 -107.5zM362 1219l27 139h127l-27 -139h-127 zM702 1219l27 139h127l-27 -139h-127z" />
<glyph unicode="&#xe5;" horiz-adv-x="897" d="M78 279q0 59 8 123.5t20 127.5q20 104 52 194.5t80.5 157t115 103.5t158.5 37q78 0 138.5 -34t88.5 -95l2 2q6 29 12.5 57.5t10.5 57.5h123l-197 -1010h-123l25 119h-6q-53 -66 -112.5 -98.5t-151.5 -32.5q-127 0 -185.5 82t-58.5 209zM207 301q0 -39 8 -73.5t26.5 -61.5 t50.5 -42t79 -15q53 0 95 21.5t72.5 57t52 79.5t36.5 87q12 39 22 82t18.5 84t13.5 77t9 60q6 47 0 91.5t-25.5 78t-53.5 53t-85 19.5q-66 0 -113.5 -27.5t-82.5 -80.5q-31 -47 -52.5 -116t-37.5 -140q-14 -66 -23.5 -126.5t-9.5 -107.5zM442 1272q0 45 17.5 85t48.5 69.5 t72 47t86 17.5q68 0 111.5 -42t43.5 -108q0 -47 -19.5 -88t-50 -69.5t-71.5 -45t-84 -16.5q-68 0 -111 42t-43 108zM518 1286q0 -41 24.5 -66.5t65.5 -25.5q27 0 51.5 10t43 28.5t29.5 43t11 51.5q0 39 -25.5 64.5t-66.5 25.5q-51 0 -92 -39t-41 -92z" />
<glyph unicode="&#xe6;" horiz-adv-x="1398" d="M35 219q0 174 111.5 269.5t297.5 95.5q53 0 103.5 -7.5t111.5 -15.5l29 154q16 84 -23.5 136t-156.5 52q-68 0 -126 -22.5t-97 -79.5q-25 16 -47.5 31.5t-44.5 31.5q53 78 141 118t188 40q43 0 86 -9t81 -27.5t66.5 -46.5t41.5 -67q47 63 120.5 107.5t167.5 44.5h7 q147 0 222 -68.5t75 -179.5q0 -160 -118 -253t-347 -97q-33 0 -73 2t-83 6q-6 -35 -10 -68.5t-4 -60.5q0 -104 41 -153.5t139 -49.5q72 0 135.5 36t97.5 89l95 -55q-53 -88 -140.5 -136t-203.5 -48q-106 0 -174 46t-91 130h-2q-61 -98 -154.5 -137t-199.5 -39 q-131 0 -196.5 64.5t-65.5 166.5zM158 246q0 -66 42 -104t136 -38q117 0 188.5 70t91.5 174l21 109q-55 10 -101.5 15t-93.5 7q-57 0 -108 -13t-90 -42t-62.5 -73t-23.5 -105zM788 545q35 -4 70 -6t64 -2q166 0 252 58t86 165q0 66 -47.5 104.5t-133.5 38.5 q-66 0 -113.5 -25.5t-81.5 -71.5t-57.5 -112.5t-38.5 -148.5z" />
<glyph unicode="&#xe7;" horiz-adv-x="768" d="M57 295q0 59 7.5 119.5t17.5 120.5q16 94 50 182t88 155.5t132 108.5t183 41q106 0 181 -51t91 -150l-117 -55q-10 66 -55 101.5t-111 35.5q-72 0 -125 -32.5t-91 -86t-61.5 -121t-37.5 -139.5q-23 -113 -23 -207q0 -96 40 -153.5t149 -57.5q68 0 126 36t87 98l108 -60 q-49 -86 -133 -138t-198 -54q-10 -23 -19.5 -44.5t-21.5 -45.5q90 -8 122.5 -50.5t32.5 -85.5q0 -29 -12 -60.5t-39 -58t-69 -43t-99 -16.5q-41 0 -82 7.5t-76 23.5q8 16 15.5 34.5t17.5 35.5q35 -16 69 -21.5t60 -5.5q41 0 78 22.5t37 69.5q0 41 -28.5 60.5t-78.5 19.5h-12 q-6 8 -13 14t-16 15q16 35 33 66.5t33 66.5q-72 8 -118 36.5t-72.5 70.5t-38 92.5t-11.5 103.5z" />
<glyph unicode="&#xe8;" horiz-adv-x="839" d="M68 301q0 72 9 154t30.5 161.5t56.5 153.5t85 130t118.5 90t158.5 34q143 0 220 -66.5t77 -175.5q0 -164 -119.5 -260t-377.5 -96q-23 0 -59 1t-68 5q-4 -29 -7.5 -58.5t-3.5 -56.5q0 -90 38 -150.5t141 -60.5q61 0 128.5 34t104.5 89l102 -57q-55 -82 -143 -133 t-205 -51q-84 0 -139 27.5t-88 71.5t-46 100.5t-13 113.5zM219 545q29 -4 66 -6t61 -2q94 0 161.5 17t109.5 48t61.5 72t19.5 90q0 63 -48 103t-134 40q-123 0 -194.5 -99t-102.5 -263zM371 1460l110 51l160 -346l-70 -30z" />
<glyph unicode="&#xe9;" horiz-adv-x="839" d="M68 301q0 72 9 154t30.5 161.5t56.5 153.5t85 130t118.5 90t158.5 34q143 0 220 -66.5t77 -175.5q0 -164 -119.5 -260t-377.5 -96q-23 0 -59 1t-68 5q-4 -29 -7.5 -58.5t-3.5 -56.5q0 -90 38 -150.5t141 -60.5q61 0 128.5 34t104.5 89l102 -57q-55 -82 -143 -133 t-205 -51q-84 0 -139 27.5t-88 71.5t-46 100.5t-13 113.5zM219 545q29 -4 66 -6t61 -2q94 0 161.5 17t109.5 48t61.5 72t19.5 90q0 63 -48 103t-134 40q-123 0 -194.5 -99t-102.5 -263zM492 1171l200 332l119 -43l-248 -321z" />
<glyph unicode="&#xea;" horiz-adv-x="839" d="M68 301q0 72 9 154t30.5 161.5t56.5 153.5t85 130t118.5 90t158.5 34q143 0 220 -66.5t77 -175.5q0 -164 -119.5 -260t-377.5 -96q-23 0 -59 1t-68 5q-4 -29 -7.5 -58.5t-3.5 -56.5q0 -90 38 -150.5t141 -60.5q61 0 128.5 34t104.5 89l102 -57q-55 -82 -143 -133 t-205 -51q-84 0 -139 27.5t-88 71.5t-46 100.5t-13 113.5zM219 545q29 -4 66 -6t61 -2q94 0 161.5 17t109.5 48t61.5 72t19.5 90q0 63 -48 103t-134 40q-123 0 -194.5 -99t-102.5 -263zM260 1192l322 276h88l204 -272l-67 -55l-199 205l-299 -207z" />
<glyph unicode="&#xeb;" horiz-adv-x="839" d="M68 301q0 72 9 154t30.5 161.5t56.5 153.5t85 130t118.5 90t158.5 34q143 0 220 -66.5t77 -175.5q0 -164 -119.5 -260t-377.5 -96q-23 0 -59 1t-68 5q-4 -29 -7.5 -58.5t-3.5 -56.5q0 -90 38 -150.5t141 -60.5q61 0 128.5 34t104.5 89l102 -57q-55 -82 -143 -133 t-205 -51q-84 0 -139 27.5t-88 71.5t-46 100.5t-13 113.5zM219 545q29 -4 66 -6t61 -2q94 0 161.5 17t109.5 48t61.5 72t19.5 90q0 63 -48 103t-134 40q-123 0 -194.5 -99t-102.5 -263zM348 1219l27 139h127l-27 -139h-127zM688 1219l27 139h127l-27 -139h-127z" />
<glyph unicode="&#xec;" horiz-adv-x="378" d="M84 0l197 1012h127l-197 -1012h-127zM141 1460l111 51l160 -346l-70 -30z" />
<glyph unicode="&#xed;" horiz-adv-x="378" d="M43 0l197 1012h127l-197 -1012h-127zM279 1171l200 332l119 -43l-248 -321z" />
<glyph unicode="&#xee;" horiz-adv-x="516" d="M100 1192l322 276h88l205 -272l-68 -55l-198 205l-299 -207zM115 0l196 1012h127l-196 -1012h-127z" />
<glyph unicode="&#xef;" horiz-adv-x="475" d="M106 0l197 1012h127l-197 -1012h-127zM170 1219l27 139h127l-27 -139h-127zM510 1219l27 139h127l-27 -139h-127z" />
<glyph unicode="&#xf0;" horiz-adv-x="888" d="M70 283q0 57 7 121.5t19 123.5q20 96 56 181.5t77 132.5q51 59 115 91t150 32q37 0 73.5 -9.5t69.5 -28t58.5 -46t39.5 -64.5h6q10 47 15.5 98.5t5.5 100.5q0 45 -5 85t-20 73l-164 -105l-34 57l168 109q-66 117 -240 133l35 105q68 -6 118 -22.5t87.5 -39t64.5 -50.5 t45 -56l164 106l37 -59q-43 -27 -86 -53.5t-86 -55.5q33 -86 33 -213q0 -47 -6.5 -118.5t-17.5 -156.5t-29.5 -177.5t-43.5 -180.5q-23 -82 -53.5 -156.5t-79.5 -131t-119 -89t-168 -32.5q-82 0 -138 26.5t-90 68.5t-49 94t-15 106zM190 279.5q3 -50.5 22 -90t58 -64.5 t107 -25q66 0 116 28t82 77q39 57 75 166.5t36 236.5q0 49 -9 93t-32.5 77t-62 52.5t-93.5 19.5q-78 0 -131 -45t-86.5 -113.5t-52 -150.5t-26.5 -158q-6 -53 -3 -103.5z" />
<glyph unicode="&#xf1;" horiz-adv-x="892" d="M27 0l196 1012h125l-24 -131h4q59 76 134 108.5t146 32.5q66 0 114 -22.5t78.5 -61.5t42 -93t1.5 -116q0 -4 -8.5 -47t-20.5 -109.5t-28.5 -147.5t-32 -161t-28.5 -150.5t-21 -113.5h-130q8 39 21.5 103.5t28 138t30 150.5t27.5 140.5t19.5 103.5t7.5 44q6 41 5 80 t-18.5 68.5t-52.5 48t-96 18.5q-59 0 -106.5 -23.5t-81 -62.5t-56 -91t-33.5 -110l-118 -608h-125zM283 1245q41 70 95 105.5t107 35.5q33 0 64 -13t60.5 -28.5t58 -27.5t59.5 -12q29 0 57.5 17t63.5 62l70 -45q-41 -82 -96.5 -114.5t-104.5 -32.5q-35 0 -67 12.5 t-61.5 27.5t-58 28.5t-55.5 13.5q-31 0 -58.5 -20.5t-62.5 -57.5z" />
<glyph unicode="&#xf2;" horiz-adv-x="866" d="M70 281q0 82 8 161.5t28 157.5q23 88 53.5 162t71.5 125q53 66 124 100.5t167 34.5q80 0 137.5 -24.5t93 -67.5t53 -98.5t17.5 -116.5q0 -63 -10 -136t-25 -139q-23 -109 -55.5 -193.5t-81.5 -142t-118.5 -87t-165.5 -29.5q-86 0 -143.5 24.5t-91.5 66.5t-48 94t-14 108z M190 311q0 -41 7.5 -78.5t28 -67.5t56 -47.5t95.5 -17.5q90 0 145.5 46.5t85.5 123.5q18 45 34.5 101.5t29 116t19.5 117t7 104.5q0 98 -50 149t-136 51q-88 0 -154 -59q-43 -39 -73.5 -106.5t-52 -144.5t-32 -153.5t-10.5 -134.5zM379 1460l110 51l160 -346l-69 -30z" />
<glyph unicode="&#xf3;" horiz-adv-x="866" d="M70 281q0 82 8 161.5t28 157.5q23 88 53.5 162t71.5 125q53 66 124 100.5t167 34.5q80 0 137.5 -24.5t93 -67.5t53 -98.5t17.5 -116.5q0 -63 -10 -136t-25 -139q-23 -109 -55.5 -193.5t-81.5 -142t-118.5 -87t-165.5 -29.5q-86 0 -143.5 24.5t-91.5 66.5t-48 94t-14 108z M190 311q0 -41 7.5 -78.5t28 -67.5t56 -47.5t95.5 -17.5q90 0 145.5 46.5t85.5 123.5q18 45 34.5 101.5t29 116t19.5 117t7 104.5q0 98 -50 149t-136 51q-88 0 -154 -59q-43 -39 -73.5 -106.5t-52 -144.5t-32 -153.5t-10.5 -134.5zM528 1171l201 332l119 -43l-248 -321z" />
<glyph unicode="&#xf4;" horiz-adv-x="866" d="M70 281q0 82 8 161.5t28 157.5q23 88 53.5 162t71.5 125q53 66 124 100.5t167 34.5q80 0 137.5 -24.5t93 -67.5t53 -98.5t17.5 -116.5q0 -63 -10 -136t-25 -139q-23 -109 -55.5 -193.5t-81.5 -142t-118.5 -87t-165.5 -29.5q-86 0 -143.5 24.5t-91.5 66.5t-48 94t-14 108z M190 311q0 -41 7.5 -78.5t28 -67.5t56 -47.5t95.5 -17.5q90 0 145.5 46.5t85.5 123.5q18 45 34.5 101.5t29 116t19.5 117t7 104.5q0 98 -50 149t-136 51q-88 0 -154 -59q-43 -39 -73.5 -106.5t-52 -144.5t-32 -153.5t-10.5 -134.5zM276 1192l322 276h88l205 -272l-68 -55 l-198 205l-299 -207z" />
<glyph unicode="&#xf5;" horiz-adv-x="866" d="M70 281q0 82 8 161.5t28 157.5q23 88 53.5 162t71.5 125q53 66 124 100.5t167 34.5q80 0 137.5 -24.5t93 -67.5t53 -98.5t17.5 -116.5q0 -63 -10 -136t-25 -139q-23 -109 -55.5 -193.5t-81.5 -142t-118.5 -87t-165.5 -29.5q-86 0 -143.5 24.5t-91.5 66.5t-48 94t-14 108z M190 311q0 -41 7.5 -78.5t28 -67.5t56 -47.5t95.5 -17.5q90 0 145.5 46.5t85.5 123.5q18 45 34.5 101.5t29 116t19.5 117t7 104.5q0 98 -50 149t-136 51q-88 0 -154 -59q-43 -39 -73.5 -106.5t-52 -144.5t-32 -153.5t-10.5 -134.5zM264 1245q41 70 95.5 105.5t107.5 35.5 q33 0 63.5 -13t60.5 -28.5t58.5 -27.5t59.5 -12q29 0 57.5 17t62.5 62l70 -45q-41 -82 -96 -114.5t-105 -32.5q-35 0 -66.5 12.5t-61 27.5t-58.5 28.5t-55 13.5q-31 0 -58.5 -20.5t-62.5 -57.5z" />
<glyph unicode="&#xf6;" horiz-adv-x="866" d="M70 281q0 82 8 161.5t28 157.5q23 88 53.5 162t71.5 125q53 66 124 100.5t167 34.5q80 0 137.5 -24.5t93 -67.5t53 -98.5t17.5 -116.5q0 -63 -10 -136t-25 -139q-23 -109 -55.5 -193.5t-81.5 -142t-118.5 -87t-165.5 -29.5q-86 0 -143.5 24.5t-91.5 66.5t-48 94t-14 108z M190 311q0 -41 7.5 -78.5t28 -67.5t56 -47.5t95.5 -17.5q90 0 145.5 46.5t85.5 123.5q18 45 34.5 101.5t29 116t19.5 117t7 104.5q0 98 -50 149t-136 51q-88 0 -154 -59q-43 -39 -73.5 -106.5t-52 -144.5t-32 -153.5t-10.5 -134.5zM346 1219l27 139h127l-27 -139h-127z M686 1219l27 139h127l-27 -139h-127z" />
<glyph unicode="&#xf7;" d="M61 543l23 102h793l-21 -102h-795zM311 240q0 47 36 78.5t79 31.5q35 0 56.5 -21.5t19.5 -56.5q0 -45 -36 -77.5t-77 -32.5q-35 0 -57.5 21.5t-20.5 56.5zM442 913q0 45 36 77t79 32q33 0 54.5 -20.5t21.5 -55.5q0 -45 -36 -77.5t-79 -32.5q-35 0 -56.5 22.5t-19.5 54.5z " />
<glyph unicode="&#xf8;" horiz-adv-x="866" d="M8 43l86 98q-14 33 -19 68t-5 72q0 82 8 161.5t28 157.5q23 88 53.5 162t71.5 125q53 66 124 100.5t167 34.5q86 0 145.5 -29.5t96.5 -77.5l94 109l55 -45l-112 -131q23 -63 22 -133q0 -63 -10 -136t-25 -139q-23 -109 -55.5 -193.5t-81.5 -142t-118.5 -87t-165.5 -29.5 q-88 0 -144.5 25.5t-91.5 66.5l-72 -82zM190 283.5q0 -13.5 3 -27.5l483 557q-23 47 -65 71.5t-99 24.5q-88 0 -154 -59q-43 -39 -73.5 -106.5t-52 -144.5t-32 -153.5t-10.5 -134.5v-27.5zM217 178q18 -35 56 -56.5t104 -21.5q90 0 145.5 46.5t85.5 123.5q18 45 34.5 101.5 t29 116t19.5 117t7 104.5q0 14 -2 22z" />
<glyph unicode="&#xf9;" horiz-adv-x="901" d="M84 281q0 2 8 45t20.5 109.5t28 148.5t30.5 161.5t28.5 150.5t21.5 116h127q-8 -39 -20.5 -104.5t-26.5 -140.5t-28.5 -152.5t-27 -141t-19.5 -104.5t-7 -43q-8 -45 -6 -84t20.5 -69t54.5 -46t95 -16q100 0 172 72.5t94 176.5l125 652h127q-8 -41 -23.5 -121t-35 -179.5 t-41 -207t-40 -205.5t-33.5 -178t-23 -121h-127q2 8 5 25.5t7 37t8 37t6 25.5h-6q-59 -74 -132 -105.5t-144 -31.5q-135 0 -198 82t-40 211zM381 1460l111 51l159 -346l-69 -30z" />
<glyph unicode="&#xfa;" horiz-adv-x="901" d="M84 281q0 2 8 45t20.5 109.5t28 148.5t30.5 161.5t28.5 150.5t21.5 116h127q-8 -39 -20.5 -104.5t-26.5 -140.5t-28.5 -152.5t-27 -141t-19.5 -104.5t-7 -43q-8 -45 -6 -84t20.5 -69t54.5 -46t95 -16q100 0 172 72.5t94 176.5l125 652h127q-8 -41 -23.5 -121t-35 -179.5 t-41 -207t-40 -205.5t-33.5 -178t-23 -121h-127q2 8 5 25.5t7 37t8 37t6 25.5h-6q-59 -74 -132 -105.5t-144 -31.5q-135 0 -198 82t-40 211zM524 1171l201 332l119 -43l-248 -321z" />
<glyph unicode="&#xfb;" horiz-adv-x="901" d="M84 281q0 2 8 45t20.5 109.5t28 148.5t30.5 161.5t28.5 150.5t21.5 116h127q-8 -39 -20.5 -104.5t-26.5 -140.5t-28.5 -152.5t-27 -141t-19.5 -104.5t-7 -43q-8 -45 -6 -84t20.5 -69t54.5 -46t95 -16q100 0 172 72.5t94 176.5l125 652h127q-8 -41 -23.5 -121t-35 -179.5 t-41 -207t-40 -205.5t-33.5 -178t-23 -121h-127q2 8 5 25.5t7 37t8 37t6 25.5h-6q-59 -74 -132 -105.5t-144 -31.5q-135 0 -198 82t-40 211zM279 1192l321 276h88l205 -272l-68 -55l-198 205l-299 -207z" />
<glyph unicode="&#xfc;" horiz-adv-x="901" d="M84 281q0 2 8 45t20.5 109.5t28 148.5t30.5 161.5t28.5 150.5t21.5 116h127q-8 -39 -20.5 -104.5t-26.5 -140.5t-28.5 -152.5t-27 -141t-19.5 -104.5t-7 -43q-8 -45 -6 -84t20.5 -69t54.5 -46t95 -16q100 0 172 72.5t94 176.5l125 652h127q-8 -41 -23.5 -121t-35 -179.5 t-41 -207t-40 -205.5t-33.5 -178t-23 -121h-127q2 8 5 25.5t7 37t8 37t6 25.5h-6q-59 -74 -132 -105.5t-144 -31.5q-135 0 -198 82t-40 211zM358 1219l27 139h127l-27 -139h-127zM698 1219l27 139h127l-27 -139h-127z" />
<glyph unicode="&#xfd;" horiz-adv-x="753" d="M-119 -299q72 4 133.5 28.5t118.5 100.5q23 29 41.5 58.5t40.5 72.5l-123 1049h129q10 -111 20.5 -220.5t20.5 -220.5q6 -55 12.5 -119.5t10.5 -130t7 -129t1 -114.5h4q51 92 104.5 206.5t104.5 238.5t98 250t86 239h129q-129 -362 -259 -645t-265 -506 q-74 -127 -169 -196t-224 -69h-21v107zM426 1171l201 332l118 -43l-247 -321z" />
<glyph unicode="&#xfe;" horiz-adv-x="876" d="M-63 -406q23 117 51 266.5t60 313.5t65.5 336t65.5 336t61.5 312.5t52.5 266.5h125l-105 -528h4q53 59 116 93t153 34q117 0 178 -67.5t61 -198.5q2 -66 -8 -142.5t-22 -140.5q-20 -98 -51 -186t-79.5 -154.5t-117 -104.5t-164.5 -38q-78 0 -133 34.5t-86 92.5h-4 l-101 -525h-122zM211 301q0 -80 39 -134t125 -54q119 0 190 92q39 53 63.5 134t43.5 169q10 53 15 102t7 92q0 41 -7 77t-25.5 63.5t-52.5 43t-85 15.5q-86 0 -146.5 -56.5t-86.5 -131.5q-29 -86 -48.5 -175t-27.5 -173q-2 -16 -3 -32t-1 -32z" />
<glyph unicode="&#xff;" horiz-adv-x="753" d="M-119 -299q72 4 133.5 28.5t118.5 100.5q23 29 41.5 58.5t40.5 72.5l-123 1049h129q10 -111 20.5 -220.5t20.5 -220.5q6 -55 12.5 -119.5t10.5 -130t7 -129t1 -114.5h4q51 92 104.5 206.5t104.5 238.5t98 250t86 239h129q-129 -362 -259 -645t-265 -506 q-74 -127 -169 -196t-224 -69h-21v107zM244 1219l26 139h127l-26 -139h-127zM584 1219l26 139h127l-26 -139h-127z" />
<glyph unicode="&#x131;" horiz-adv-x="378" d="M43 0l197 1012h127l-197 -1012h-127z" />
<glyph unicode="&#x152;" horiz-adv-x="1402" d="M102.5 254q-10.5 78 6.5 162l108 592q16 86 49 163.5t86.5 137t131 94.5t186.5 35q33 0 67.5 -4t63.5 -11q182 0 357 1t358 1l-25 -120h-580q-27 -131 -51 -261.5t-49 -261.5h516l-22 -116h-517q-27 -137 -53 -273.5t-55 -273.5h600l-20 -119h-674q-29 -6 -72 -9t-78 -3 q-104 0 -175 34.5t-109.5 94t-49 137.5zM229.5 317.5q-0.5 -63.5 24.5 -110.5t77 -74t142 -27q43 0 78 13l227 1175q-45 23 -108 23q-82 0 -139.5 -27.5t-95.5 -75t-60.5 -110t-34.5 -131.5l-96 -518q-14 -74 -14.5 -137.5z" />
<glyph unicode="&#x153;" horiz-adv-x="1423" d="M70 281q0 82 8 161.5t28 157.5q23 88 53.5 162t71.5 125q53 66 124 100.5t167 34.5q117 0 183.5 -50t95.5 -128q53 80 131.5 130t189.5 50q143 0 220 -66.5t77 -175.5q0 -164 -119.5 -260t-377.5 -96q-23 0 -59 1t-68 5q-4 -29 -7.5 -58.5t-3.5 -56.5q0 -90 38 -150.5 t141 -60.5q61 0 128.5 34t104.5 89l102 -57q-55 -82 -143 -133t-205 -51q-115 0 -176 47t-88 117q-51 -80 -127 -122t-192 -42q-86 0 -143.5 24.5t-91.5 66.5t-48 94t-14 108zM190 311q0 -41 7.5 -78.5t28 -67.5t56 -47.5t95.5 -17.5q90 0 145.5 46.5t85.5 123.5 q18 45 34.5 101.5t29 116t19.5 117t7 104.5q0 98 -50 149t-136 51q-88 0 -154 -59q-43 -39 -73.5 -106.5t-52 -144.5t-32 -153.5t-10.5 -134.5zM815 545q29 -4 66 -6t61 -2q94 0 161.5 17t109.5 48t61.5 72t19.5 90q0 63 -48 103t-134 40q-123 0 -194.5 -99t-102.5 -263z " />
<glyph unicode="&#x178;" horiz-adv-x="866" d="M209 1425h127q6 -29 20.5 -96t30.5 -141t30.5 -141.5t20.5 -96.5l47 -205h9q41 68 80.5 135.5t80.5 135.5q59 104 121 204.5t123 204.5h141l-514 -829l-114 -596h-127l114 596q-47 209 -95 415t-95 414zM410 1532l24 137h131l-26 -137h-129zM745 1532l29 137h129 l-26 -137h-132z" />
<glyph unicode="&#x192;" d="M-39 -158q2 6 8 21.5t12.5 31t12.5 30t10 20.5q51 -18 100 -19q84 0 133.5 68.5t81.5 216.5l115 524h-168l13 115h180l45 201q16 74 42.5 143.5t67.5 121.5t100.5 84t143.5 32q76 0 131 -23q-2 -6 -7 -22.5t-11 -35t-11.5 -35l-7.5 -22.5q-25 10 -55.5 14.5t-54.5 4.5 q-82 0 -134.5 -66.5t-78.5 -191.5l-45 -205h200l-10 -115h-215l-115 -520q-20 -96 -47.5 -170t-67.5 -126t-94.5 -78.5t-128.5 -26.5q-33 0 -72.5 7t-72.5 21z" />
<glyph unicode="&#x2c6;" horiz-adv-x="866" d="M289 1192l321 276h88l205 -272l-67 -55l-199 205l-299 -207z" />
<glyph unicode="&#x2c7;" horiz-adv-x="866" d="M315 1409l68 53l207 -202l291 202l47 -55l-310 -274h-88z" />
<glyph unicode="&#x2d8;" horiz-adv-x="888" d="M356 1417h109q-4 -53 30.5 -99t102.5 -46t118 44t66 101h117q-12 -45 -35.5 -89t-62.5 -80t-90.5 -58.5t-118.5 -22.5q-70 0 -117 21.5t-75.5 56.5t-39 80t-4.5 92z" />
<glyph unicode="&#x2d9;" horiz-adv-x="839" d="M492 1210l26 140h131l-28 -140h-129z" />
<glyph unicode="&#x2da;" horiz-adv-x="862" d="M444 1272q0 45 17.5 85t48.5 69.5t72 47t86 17.5q68 0 111.5 -42t43.5 -108q0 -47 -19.5 -88t-50 -69.5t-71.5 -45t-84 -16.5q-68 0 -111 42t-43 108zM520 1286q0 -41 24.5 -66.5t65.5 -25.5q27 0 51.5 10t43 28.5t29.5 43t11 51.5q0 39 -25.5 64.5t-66.5 25.5 q-51 0 -92 -39t-41 -92z" />
<glyph unicode="&#x2db;" horiz-adv-x="735" d="M299 -223q0 45 26.5 101t94.5 126h86l2 -4q-53 -55 -76.5 -105.5t-23.5 -91.5q0 -70 77 -69q43 0 115 37l16 -86q-37 -20 -83 -33.5t-91 -13.5q-68 0 -105.5 39.5t-37.5 99.5z" />
<glyph unicode="&#x2dc;" d="M295 1245q41 70 95.5 105.5t107.5 35.5q33 0 63.5 -13t60 -28.5t58.5 -27.5t59 -12q29 0 57.5 17t63.5 62l70 -45q-41 -82 -96.5 -114.5t-104.5 -32.5q-35 0 -66.5 12.5t-61.5 27.5t-58.5 28.5t-55.5 13.5q-31 0 -58.5 -20.5t-61.5 -57.5z" />
<glyph unicode="&#x2dd;" d="M406 1171l200 332l121 -43l-252 -321zM618 1171l205 332l117 -43l-248 -321z" />
<glyph unicode="&#x3a9;" horiz-adv-x="997" d="M-18 0q6 29 11 59.5t9 61.5h174q-66 57 -86 143t0 195l111 553q14 76 43.5 152.5t82 136t130.5 97.5t192 38q104 0 180 -36t122 -96.5t60.5 -137t0.5 -158.5l-105 -576q-20 -106 -62 -191t-122 -120h151q-4 -31 -10 -61.5t-12 -59.5h-330l31 141q92 29 144.5 105 t72.5 176l113 584q8 49 3 102t-33 98t-80 75t-138 30q-78 0 -132 -29t-89 -73t-55.5 -98t-30.5 -105l-107 -553q-10 -49 -9 -97.5t15.5 -89.5t42 -72.5t72.5 -50.5l-29 -143h-331z" />
<glyph unicode="&#x3c0;" horiz-adv-x="913" d="M37 0l196 1012h676l-194 -1012h-129l176 899h-424l-176 -899h-125z" />
<glyph unicode="&#x401;" horiz-adv-x="907" d="M49 0l277 1425h733l-27 -120h-600l-100 -521h518l-23 -118h-516l-108 -545h600l-21 -121h-733zM473 1532l25 137h131l-27 -137h-129zM809 1532l29 137h129l-27 -137h-131z" />
<glyph unicode="&#x402;" horiz-adv-x="1167" d="M150 1307l22 116h891l-23 -116h-434l-98 -484q2 0 3 -1t3 -1q57 63 143 102.5t166 39.5q135 0 212 -77t77 -231v-22q-6 -139 -32.5 -260t-84 -210t-149.5 -141.5t-228 -52.5h-21t-22 2l23 109h18q104 0 173 43t110 116.5t60.5 169t23.5 199.5v23q0 96 -43 154.5 t-156 58.5q-53 0 -100 -19.5t-89 -52.5t-75 -77t-53 -91q-29 -152 -57.5 -302t-57.5 -302h-131l254 1307h-325z" />
<glyph unicode="&#x403;" horiz-adv-x="880" d="M49 0l277 1425h721l-25 -122h-588q-2 -14 -14 -75t-29.5 -151t-39 -200.5t-43 -225t-43 -225.5t-39 -200t-30 -150.5t-14.5 -75.5h-133zM584 1554l327 230l74 -101l-358 -192z" />
<glyph unicode="&#x404;" horiz-adv-x="942" d="M92 315q0 39 8.5 98.5t18.5 110.5l78 398q18 96 47.5 188t82 165t135.5 117t206 44q170 0 260 -83t100 -218l-133 -39q-2 94 -62.5 154.5t-166.5 60.5q-86 0 -141.5 -31t-92.5 -79t-57.5 -108.5t-34.5 -121.5q-4 -16 -10 -42t-12.5 -53.5t-11.5 -53t-7 -40.5h434 l-24 -123h-433l-26 -137q-10 -47 -17.5 -99t-7.5 -93q0 -45 11.5 -85t37 -71t68.5 -48t107 -17q109 0 186.5 58t118.5 169l127 -45q-53 -150 -165 -226.5t-272 -76.5q-178 0 -265 92t-87 235z" />
<glyph unicode="&#x405;" horiz-adv-x="952" d="M41 231l123 62q27 -78 93.5 -129t182.5 -51q82 0 140.5 26.5t97.5 71.5t57.5 101.5t18.5 115.5q0 55 -15.5 92t-44 63.5t-70.5 44t-96 36.5q-86 29 -147.5 60.5t-99 70.5t-55 87t-17.5 113q0 98 30.5 180t88 140.5t139.5 90.5t184 32q141 0 226.5 -59.5t119.5 -143.5 l-120 -72q-29 72 -91.5 110t-148.5 38q-72 0 -125 -24.5t-89 -65.5t-54.5 -95.5t-18.5 -111.5q0 -53 18.5 -88t53.5 -60.5t84 -46t110 -41.5q147 -51 215 -124.5t68 -204.5q0 -102 -31.5 -187.5t-92 -147t-148.5 -95t-203 -33.5q-160 0 -255 67.5t-128 177.5z" />
<glyph unicode="&#x406;" horiz-adv-x="415" d="M59 0l279 1425h131l-276 -1425h-134z" />
<glyph unicode="&#x407;" horiz-adv-x="419" d="M59 0l279 1425h131l-276 -1425h-134zM188 1567l29 139h129l-27 -139h-131zM532 1567l27 139h129l-26 -139h-130z" />
<glyph unicode="&#x408;" horiz-adv-x="800" d="M-41 111l98 79q29 -37 82.5 -59t100.5 -22q49 0 94 12t81 43t62.5 82t42.5 129l205 1050h133l-207 -1065q-20 -102 -56 -173.5t-88 -115.5t-121 -63.5t-153 -19.5q-86 0 -159.5 31.5t-114.5 91.5z" />
<glyph unicode="&#x409;" horiz-adv-x="1556" d="M-63 74q59 31 108 68.5t91 100t77 162t66 252.5l149 768h612l-118 -618h247q176 0 263.5 -87t87.5 -226q0 -106 -32 -196.5t-93.5 -157t-149.5 -103.5t-201 -37h-411l252 1305h-355l-120 -625q-35 -178 -77 -300t-94.5 -203t-117 -129t-146.5 -81zM788 123h261 q82 0 145 28.5t106 75.5t66 110.5t23 135.5q0 98 -58.5 155.5t-175.5 57.5h-258z" />
<glyph unicode="&#x40a;" horiz-adv-x="1552" d="M29 0l276 1425h133l-123 -626h471l123 626h131l-122 -626h247q176 0 264.5 -88.5t88.5 -227.5q0 -106 -32 -194t-91.5 -152.5t-146.5 -100.5t-199 -36h-416l131 678h-473l-129 -678h-133zM786 123h263q80 0 142 26.5t105 73.5t64.5 108.5t21.5 133.5q0 94 -57 152.5 t-174 58.5h-258z" />
<glyph unicode="&#x40b;" horiz-adv-x="1193" d="M152 1307l22 118h897l-22 -118h-439l-90 -473h4q68 68 155 98.5t159 30.5q154 0 229.5 -84t44.5 -236l-123 -643h-133l119 602q10 51 7 95t-24.5 77t-62.5 50.5t-107 17.5q-102 0 -187 -63.5t-122 -157.5l-123 -621h-131l254 1307h-327z" />
<glyph unicode="&#x40c;" horiz-adv-x="991" d="M45 0l274 1423h130l-121 -630h192q33 0 71 8t77 30.5t75.5 65.5t69.5 111l199 415h127l-193 -409q-47 -104 -107.5 -176t-133.5 -95q84 -27 114.5 -99.5t36.5 -178.5l29 -465h-125l-27 449q-4 72 -22.5 115.5t-47 68t-65.5 33t-76 8.5h-219l-129 -674h-129zM629 1554 l325 230l72 -101l-356 -192z" />
<glyph unicode="&#x40e;" horiz-adv-x="917" d="M49 -12l23 114h73q51 0 99.5 36t97.5 128l39 74q-41 272 -80 540.5t-78 542.5h131l66 -477l53 -436q2 0 4 1t4 1l185 365q4 8 25.5 49t50 99t61.5 125t61.5 125t49 99l24.5 49h139q-25 -45 -70.5 -133t-102 -197.5t-119 -229.5t-120 -229.5t-103.5 -197.5t-68 -133 q-47 -92 -91.5 -153.5t-87.5 -97.5t-86 -50t-90 -14h-90zM424 1698h108q-4 -53 31 -99.5t103 -46.5t118 44t66 102h117q-12 -45 -36 -89t-63 -80t-90 -58.5t-119 -22.5q-70 0 -116.5 21.5t-75.5 56.5t-39 80t-4 92z" />
<glyph unicode="&#x40f;" horiz-adv-x="1050" d="M49 0l268 1425h132l-248 -1302h528l248 1302h133l-270 -1425h-328l-57 -299h-136l58 299h-328z" />
<glyph unicode="&#x410;" horiz-adv-x="989" d="M-61 0q172 358 342 712.5t344 712.5h125q35 -358 67.5 -712.5t67.5 -712.5h-131l-25 342h-496q-39 -86 -78.5 -171t-80.5 -171h-135zM287 459h434q-10 111 -18.5 217t-18.5 217q-8 86 -13 174t-14 174h-6l-153 -338z" />
<glyph unicode="&#x411;" horiz-adv-x="978" d="M31 0l276 1425h668l-25 -122h-536l-95 -490h254q154 0 249.5 -84t95.5 -225q0 -104 -31 -195.5t-90.5 -160t-147.5 -108.5t-203 -40h-415zM184 123h254q162 0 253 94t95 262q0 94 -59 154.5t-176 60.5h-254q-6 -29 -22.5 -110.5t-35 -175t-34 -175t-21.5 -110.5z" />
<glyph unicode="&#x412;" horiz-adv-x="1015" d="M47 0l279 1425h381q158 0 244.5 -74.5t86.5 -222.5q0 -145 -63.5 -245.5t-196.5 -141.5l-2 -4q86 -23 126 -96.5t40 -169.5q-6 -131 -48 -221t-109.5 -145.5t-155.5 -80t-187 -24.5h-395zM199 119h290q80 0 140.5 29.5t101.5 78.5t61.5 114t20.5 134q0 98 -55.5 152.5 t-163.5 54.5h-285q-29 -141 -55.5 -281.5t-54.5 -281.5zM332 797h231q68 0 130.5 17t110.5 54t77.5 95.5t29.5 140.5q0 100 -62.5 151.5t-172.5 51.5h-244q-27 -129 -51.5 -255t-48.5 -255z" />
<glyph unicode="&#x413;" horiz-adv-x="880" d="M49 0l277 1425h721l-25 -122h-588q-2 -14 -14 -75t-29.5 -151t-39 -200.5t-43 -225t-43 -225.5t-39 -200t-30 -150.5t-14.5 -75.5h-133z" />
<glyph unicode="&#x414;" horiz-adv-x="1161" d="M-111 -289q16 98 36 195.5t36 195.5q20 4 38.5 7.5t39.5 7.5q43 29 79 68.5t66.5 97t57 134.5t51.5 179l190 829h729q-63 -330 -125.5 -655.5t-128.5 -654.5h95q-18 -102 -38 -201.5t-40 -202.5h-121q16 72 28.5 144.5t28.5 144.5h-850l-53 -289h-119zM203 113h626 q57 301 114.5 598t117.5 598h-483l-164 -711q-23 -100 -46.5 -175t-49 -131t-54 -99t-61.5 -80z" />
<glyph unicode="&#x415;" horiz-adv-x="907" d="M49 0l277 1425h733l-27 -120h-600l-100 -521h518l-23 -118h-516l-108 -545h600l-21 -121h-733z" />
<glyph unicode="&#x416;" horiz-adv-x="1540" d="M-49 0q49 117 98 230.5t103 230.5q47 106 106 180t156 100q-68 23 -99.5 93.5t-40.5 175.5l-30 413h121l34 -419q4 -70 24.5 -112t50.5 -65.5t65.5 -31t70.5 -7.5h164l121 637h129q-31 -160 -61.5 -318.5t-59.5 -318.5h129q33 0 75 6.5t86 29t88 67.5t81 123l190 409h123 l-166 -372q-53 -117 -119.5 -201t-144.5 -109q84 -27 112.5 -100.5t37.5 -179.5l30 -461h-129l-26 444q-4 72 -22.5 116t-47.5 68.5t-64.5 34t-74.5 9.5h-182l-127 -672h-129l129 672h-148q-45 0 -89 -6.5t-85 -29t-80 -67.5t-76 -125l-194 -444h-129z" />
<glyph unicode="&#x417;" horiz-adv-x="929" d="M4 281q27 10 60.5 21t62.5 22q4 -115 72.5 -165t175.5 -50q61 0 119.5 25.5t103.5 75.5t72.5 123t27.5 167q0 80 -48 135t-132 55h-127q4 29 10.5 58.5t12.5 58.5h123q57 0 106 23.5t85 64.5t56.5 99.5t20.5 129.5q0 47 -18.5 82t-48 58.5t-69.5 35t-83 11.5 q-104 0 -183 -51.5t-120 -149.5q-29 14 -57.5 27.5t-57.5 25.5q59 141 173 207t255 66q166 0 256 -79t90 -210q0 -51 -10 -110.5t-37 -115t-72 -100.5t-112 -69l-2 -2q0 -2 1 -2t1 -3q39 -16 62.5 -42.5t37.5 -57.5t19.5 -64.5t5.5 -66.5q0 -111 -31 -207t-91.5 -166.5 t-149.5 -111.5t-206 -41q-72 0 -134 17.5t-110 53t-77 91t-33 131.5z" />
<glyph unicode="&#x418;" horiz-adv-x="1103" d="M45 0l277 1425h129l-222 -1136q2 0 3 -1t4 -1q74 104 146.5 205.5t147.5 205.5l521 727h118l-276 -1425h-127l221 1135h-4l-240 -328l-573 -807h-125z" />
<glyph unicode="&#x419;" horiz-adv-x="1103" d="M45 0l277 1425h129l-222 -1136q2 0 3 -1t4 -1q74 104 146.5 205.5t147.5 205.5l521 727h118l-276 -1425h-127l221 1135h-4l-240 -328l-573 -807h-125zM508 1745h108q-4 -53 31 -99.5t103 -46.5t118 44.5t66 101.5h117q-12 -45 -36 -89t-63 -80t-90 -58.5t-119 -22.5 q-70 0 -116.5 21.5t-75.5 56.5t-39 80t-4 92z" />
<glyph unicode="&#x41a;" horiz-adv-x="995" d="M45 0l274 1423h130l-121 -630h192q33 0 71 8t77 30.5t75.5 65.5t69.5 111l199 415h127l-193 -409q-47 -104 -107.5 -176t-133.5 -95q84 -27 114.5 -99.5t36.5 -178.5l29 -465h-125l-27 449q-4 72 -22.5 115.5t-47 68t-65.5 33t-76 8.5h-219l-129 -674h-129z" />
<glyph unicode="&#x41b;" horiz-adv-x="1069" d="M-70 70q68 35 117 73.5t89 112.5t77 196.5t78 325.5l125 647h708l-276 -1425h-129l252 1305h-455q-33 -160 -63.5 -320t-61.5 -319q-35 -178 -76 -298t-91 -197t-112.5 -123t-142.5 -77q-10 25 -19 49.5t-20 49.5z" />
<glyph unicode="&#x41c;" horiz-adv-x="1310" d="M47 0l279 1425h127l129 -579q23 -92 42 -183.5t40 -183.5h4l252 412l327 534h135l-278 -1425h-127q53 274 106.5 548.5t106.5 549.5h-6l-252 -416l-256 -403h-92q-31 123 -60.5 246.5t-58.5 248.5l-72 316h-4l-211 -1090h-131z" />
<glyph unicode="&#x41d;" horiz-adv-x="1062" d="M49 0l279 1425h131l-127 -641h538l125 641h131l-276 -1425h-131l129 666h-537l-129 -666h-133z" />
<glyph unicode="&#x41e;" horiz-adv-x="1005" d="M94 269q-12 83 4 173l113 570q14 76 45 152.5t84 136t132 97.5t194 38q104 0 179 -36t120 -96.5t58 -137t-1 -158.5l-107 -592q-18 -96 -54 -174t-92 -135.5t-132 -88t-174 -30.5q-115 0 -191.5 36.5t-121 99t-56.5 145.5zM221 313.5q4 -59.5 32 -104.5t80 -72.5 t132 -27.5q70 0 122 23.5t91 63.5t63.5 94t36.5 116l115 600q8 49 3 102t-32.5 98t-80 75t-138.5 30q-76 0 -129 -29t-89 -73t-57.5 -98t-31.5 -105l-109 -570q-12 -63 -8 -122.5z" />
<glyph unicode="&#x41f;" horiz-adv-x="1054" d="M49 0l277 1425h792l-276 -1425h-131l254 1309h-531l-254 -1309h-131z" />
<glyph unicode="&#x420;" horiz-adv-x="966" d="M49 0l279 1425h381q166 0 257 -78.5t91 -232.5q0 -115 -32 -210t-93.5 -165.5t-150.5 -109.5t-206 -39h-278l-115 -590h-133zM319 715h263q80 0 143 27.5t107.5 76.5t67 116.5t22.5 149.5q0 104 -59.5 162t-180.5 58h-248z" />
<glyph unicode="&#x421;" horiz-adv-x="948" d="M92 315q0 39 8.5 98.5t18.5 110.5l78 398q18 96 47.5 188t82 165t135.5 117t206 44q170 0 260 -83t100 -218l-133 -39q-2 94 -62.5 154.5t-166.5 60.5q-86 0 -141.5 -31t-92.5 -79t-57.5 -108.5t-34.5 -121.5q-10 -31 -22.5 -92.5t-25.5 -131t-24.5 -132t-17.5 -93.5 q-10 -47 -17.5 -99t-7.5 -93q0 -45 11.5 -85t37 -71t68.5 -48t107 -17q109 0 186.5 58t118.5 169l127 -45q-53 -150 -165 -226.5t-272 -76.5q-178 0 -265 92t-87 235z" />
<glyph unicode="&#x422;" horiz-adv-x="811" d="M178 1307l23 118h798l-24 -118h-332l-254 -1307h-131l254 1307h-334z" />
<glyph unicode="&#x423;" horiz-adv-x="917" d="M49 -12l23 114h73q51 0 99.5 36t97.5 128l39 74q-41 272 -80 540.5t-78 542.5h131l66 -477l53 -436q2 0 4 1t4 1l185 365q4 8 25.5 49t50 99t61.5 125t61.5 125t49 99l24.5 49h139q-25 -45 -70.5 -133t-102 -197.5t-119 -229.5t-120 -229.5t-103.5 -197.5t-68 -133 q-47 -92 -91.5 -153.5t-87.5 -97.5t-86 -50t-90 -14h-90z" />
<glyph unicode="&#x424;" horiz-adv-x="1232" d="M123 522q0 143 30.5 289.5t102.5 266.5t187.5 196t285.5 76l16 75h129l-14 -75q98 -4 168 -39t114 -92.5t65.5 -132t21.5 -160.5q0 -141 -31 -285.5t-102.5 -261.5t-187 -189.5t-287.5 -72.5l-23 -117h-129l23 117q-96 8 -166 42t-115 87t-66.5 123.5t-21.5 152.5z M254 535q0 -279 258 -299q49 248 97 495.5t96 495.5q-111 -4 -196 -58.5t-141.5 -147.5t-85 -218t-28.5 -268zM647 236q111 6 196 55t141 135t85 208t29 271q0 150 -61.5 234t-196.5 88q-49 -248 -97.5 -496t-95.5 -495z" />
<glyph unicode="&#x425;" horiz-adv-x="884" d="M-66 0l502 735l-203 690h136l155 -567l375 567h148l-476 -690l220 -735h-136l-170 608l-405 -608h-146z" />
<glyph unicode="&#x426;" horiz-adv-x="1073" d="M49 0l275 1425h129l-250 -1302h530l250 1302h133l-252 -1304h101l-80 -412h-125l57 291h-768z" />
<glyph unicode="&#x427;" horiz-adv-x="970" d="M166 804q-6 75 12 167l84 454h127l-80 -415q-14 -70 -16 -129.5t17.5 -103.5t64.5 -68.5t125 -24.5q66 0 146.5 19.5t146.5 58.5q10 53 27.5 143t37 187.5t36.5 188.5t28 144h131l-277 -1425h-131q10 51 27.5 138t36 180.5t35 180.5t26.5 138q-37 -18 -78 -31.5t-81 -23 t-76.5 -13.5t-63.5 -4q-100 0 -164.5 29t-99.5 82t-41 128z" />
<glyph unicode="&#x428;" horiz-adv-x="1536" d="M43 0l276 1425h130l-254 -1300h446l252 1300h133l-254 -1300h451l254 1300h129l-277 -1425h-1286z" />
<glyph unicode="&#x429;" horiz-adv-x="1562" d="M43 0l272 1425h131l-251 -1302h446l250 1302h131l-252 -1302h451l252 1302h131l-254 -1304h104l-82 -410h-121l58 289h-1266z" />
<glyph unicode="&#x42a;" horiz-adv-x="1216" d="M172 1300l25 125h497l-119 -618h248q176 0 264.5 -87t88.5 -226q0 -106 -32 -196.5t-92.5 -157t-148.5 -103.5t-201 -37h-415l252 1300h-367zM440 123h265q80 0 142 28.5t105 75.5t65.5 110.5t22.5 135.5q0 98 -57 155.5t-174 57.5h-258z" />
<glyph unicode="&#x42b;" horiz-adv-x="1286" d="M37 0q10 51 31.5 159.5t48 248t56.5 293t57.5 296t49 256t33.5 172.5h131q-31 -156 -61.5 -309t-58.5 -309h249q176 0 263.5 -87t87.5 -228q0 -121 -37 -213.5t-104.5 -154t-164 -93t-212.5 -31.5h-369zM190 123h263q78 0 140 24.5t105 68.5t65.5 104.5t22.5 134.5 q0 51 -12 93t-38.5 72.5t-69.5 48t-107 17.5h-258zM956 0l277 1425h131l-277 -1425h-131z" />
<glyph unicode="&#x42c;" horiz-adv-x="942" d="M10 0q10 51 31.5 159.5t48.5 248t56.5 293t57 296t49 256t34.5 172.5h131q-31 -156 -60.5 -309t-58.5 -309h248q176 0 264 -87t88 -228q0 -121 -36 -213.5t-101.5 -154t-155.5 -93t-200 -31.5h-396zM164 123h260q78 0 140.5 24.5t106.5 68.5t67.5 104.5t23.5 134.5 q0 51 -12.5 93t-40 72.5t-70.5 48t-107 17.5h-258z" />
<glyph unicode="&#x42d;" horiz-adv-x="919" d="M20 270l132 43q6 -86 66.5 -142t162.5 -56q82 0 137 30.5t92 78.5t59.5 108.5t37.5 122.5q4 16 11 44.5t13 59.5t12.5 59.5t10.5 47.5h-430l24 122h428l23 115q10 47 16 99.5t6 93.5q0 45 -13 85t-42 70.5t-73 48t-107 17.5q-98 0 -170 -51.5t-113 -149.5l-125 49 q57 135 161.5 204t256.5 69q178 0 268 -92.5t90 -235.5q0 -39 -8 -98.5t-18 -110.5l-78 -397q-18 -96 -48 -188.5t-82 -165t-135 -116.5t-206 -44q-164 0 -253 77.5t-106 202.5z" />
<glyph unicode="&#x42e;" horiz-adv-x="1306" d="M35 0l276 1425h129l-123 -645h179q14 66 27.5 130.5t29.5 127.5q20 80 49 152t76 126t118 87t175 33q86 0 152.5 -25t112.5 -70t70.5 -105t24.5 -134q0 -12 -2 -38t-5 -56.5t-7 -63.5t-10 -59q-6 -31 -16.5 -90.5t-22 -126t-22.5 -127t-17 -90.5q-23 -100 -54.5 -185.5 t-83 -147t-128 -96t-193.5 -34.5q-92 0 -157.5 25.5t-108.5 69.5t-63.5 104.5t-20.5 129.5q0 45 4 86t11 83t16.5 85t19.5 95h-176q-33 -166 -64.5 -333t-66.5 -333h-129zM551 322q0 -45 11 -85t37 -70t70 -47.5t111 -17.5q82 0 136.5 29t90 75t55 106.5t32.5 123.5 q29 145 56.5 296t47.5 290q8 55 2 107.5t-33.5 94.5t-79 67.5t-131.5 25.5q-68 0 -111.5 -22.5t-73.5 -57.5t-48 -80t-33 -90q-10 -35 -18 -67.5t-17 -67.5q-10 -43 -22 -109.5t-24.5 -136.5t-24 -134.5t-19.5 -105.5q-6 -33 -10 -63.5t-4 -60.5z" />
<glyph unicode="&#x42f;" horiz-adv-x="1034" d="M-12 0l172 436q39 94 87 164t132 98q-88 37 -123 110t-35 159q0 106 33 191t92.5 144.5t144 91t187.5 31.5h418l-275 -1425h-129l125 651h-229q-39 0 -78 -9t-78 -34.5t-73.5 -70.5t-65.5 -117l-166 -420h-139zM354 979q0 -106 63.5 -158.5t172.5 -52.5h250l104 539h-266 q-143 0 -233.5 -84t-90.5 -244z" />
<glyph unicode="&#x430;" horiz-adv-x="897" d="M78 279q0 59 8 123.5t20 127.5q20 104 52 194.5t80.5 157t115 103.5t158.5 37q78 0 138.5 -34t88.5 -95l2 2q6 29 12.5 57.5t10.5 57.5h123l-197 -1010h-123l25 119h-6q-53 -66 -112.5 -98.5t-151.5 -32.5q-127 0 -185.5 82t-58.5 209zM207 301q0 -39 8 -73.5t26.5 -61.5 t50.5 -42t79 -15q53 0 95 21.5t72.5 57t52 79.5t36.5 87q12 39 22 82t18.5 84t13.5 77t9 60q6 47 0 91.5t-25.5 78t-53.5 53t-85 19.5q-66 0 -113.5 -27.5t-82.5 -80.5q-31 -47 -52.5 -116t-37.5 -140q-14 -66 -23.5 -126.5t-9.5 -107.5z" />
<glyph unicode="&#x431;" horiz-adv-x="872" d="M68 291q0 39 5 93t15 136q16 92 27.5 156.5t20.5 111t17.5 79t14.5 61.5q43 170 97 273.5t132 161.5t186.5 81.5t262.5 34.5l6 -105q-119 -10 -207 -26.5t-153.5 -59.5t-112.5 -120.5t-84 -211.5q-8 -29 -14.5 -57.5t-14.5 -60.5q2 0 3 -1t3 -1q27 41 62 68.5t70.5 43 t71.5 21.5t67 6q76 0 128 -25.5t83.5 -65.5t45 -91.5t13.5 -102.5q0 -109 -22 -233q-18 -106 -50 -193.5t-83.5 -149t-123 -94t-169.5 -32.5q-154 0 -225.5 81t-71.5 222zM195 295q0 -41 8 -77t28.5 -62.5t56.5 -42t91 -15.5q111 0 174 69t100 234q20 92 27.5 150.5 t7.5 107.5q0 43 -9 80t-29.5 64.5t-54.5 44t-83 16.5q-63 0 -111.5 -26.5t-83.5 -69.5q-18 -23 -39.5 -69t-40 -108.5t-30.5 -138t-12 -157.5z" />
<glyph unicode="&#x432;" horiz-adv-x="866" d="M57 246q0 78 19 151l61 287q14 63 41 124.5t73 109t113.5 76t161.5 28.5q80 0 134.5 -20.5t88 -53.5t49 -72.5t15.5 -78.5q0 -72 -41 -139.5t-119 -92.5q76 -27 107 -80t31 -118q0 -66 -26 -133.5t-78 -123t-133 -90t-189 -34.5q-66 0 -122.5 15t-97.5 47t-64.5 81 t-23.5 117zM180 266q0 -66 42.5 -115t144.5 -49q74 0 130 24t93 61.5t55.5 83.5t18.5 91q0 68 -45.5 107t-147.5 39h-88q0 2 4 18.5t8 37t7.5 36.5t3.5 18h69q94 0 145.5 43.5t55.5 110.5q0 25 -8.5 49.5t-26.5 43t-49 29.5t-78 11q-63 0 -108.5 -22.5t-76 -58.5t-48 -79 t-25.5 -86l-63 -307q-4 -23 -8.5 -45t-4.5 -41z" />
<glyph unicode="&#x433;" horiz-adv-x="798" d="M37 215q0 152 94 232.5t262 127.5q135 41 202 84t67 121q0 63 -45.5 93t-122.5 30q-74 0 -141.5 -29.5t-110.5 -89.5l-97 62q55 86 144.5 131t206.5 47q61 0 114.5 -12.5t93 -40t63.5 -70.5t24 -102q0 -68 -25 -119t-71 -89t-109.5 -67.5t-141.5 -54.5 q-59 -18 -109 -36.5t-88 -43t-59.5 -61.5t-21.5 -92q0 -72 51 -103t139 -31q63 0 135 31t119 88l92 -63q-59 -86 -148 -130t-220 -44q-63 0 -117.5 14t-94.5 43t-62.5 72t-22.5 102z" />
<glyph unicode="&#x434;" horiz-adv-x="876" d="M63 303q0 41 7.5 102.5t17.5 110.5q20 117 58 207t94 149q96 102 254 103q66 0 136 -34t103 -110h8q10 43 12.5 93.5t2.5 87.5q0 63 -7.5 123.5t-32 107.5t-73.5 75t-131 28q-37 0 -82 -6.5t-92 -22.5q-4 27 -11.5 52.5t-11.5 51.5q113 33 211 33q94 0 160 -28.5 t105.5 -82t58 -127t18.5 -165.5t-17 -246t-65 -348q-25 -106 -60.5 -193.5t-86.5 -149t-118.5 -95t-155.5 -33.5q-90 0 -147.5 27.5t-92.5 72.5t-48.5 101.5t-13.5 115.5zM184 309q0 -39 8.5 -76.5t29 -67.5t57 -48.5t94.5 -18.5q53 0 92 20.5t72 55.5q33 33 60.5 87 t47 115.5t31.5 127t12 123.5q0 100 -47 166.5t-149 66.5q-74 0 -129.5 -42t-94.5 -120q-41 -84 -62.5 -191.5t-21.5 -197.5z" />
<glyph unicode="&#x435;" horiz-adv-x="839" d="M68 301q0 72 9 154t30.5 161.5t56.5 153.5t85 130t118.5 90t158.5 34q143 0 220 -66.5t77 -175.5q0 -164 -119.5 -260t-377.5 -96q-23 0 -59 1t-68 5q-4 -29 -7.5 -58.5t-3.5 -56.5q0 -90 38 -150.5t141 -60.5q61 0 128.5 34t104.5 89l102 -57q-55 -82 -143 -133 t-205 -51q-84 0 -139 27.5t-88 71.5t-46 100.5t-13 113.5zM219 545q29 -4 66 -6t61 -2q94 0 161.5 17t109.5 48t61.5 72t19.5 90q0 63 -48 103t-134 40q-123 0 -194.5 -99t-102.5 -263z" />
<glyph unicode="&#x436;" horiz-adv-x="1660" d="M-18 137l90 62q45 -102 151 -103q68 0 114 32t79 79q20 31 41.5 87t38 123.5t28 140.5t11.5 140q0 94 -38 150.5t-124 56.5q-104 0 -176 -90l-74 72q47 61 112.5 97t157.5 36q133 0 197.5 -81t64.5 -208q0 -35 -5 -90t-15 -111h6q70 115 128 237t120 241h94l-133 -701 q2 0 3 -1t3 -1q35 72 72 141.5t76 143.5q47 90 91 169t94 137t113.5 92t149.5 34q88 0 150.5 -38t91.5 -112q-23 -14 -45.5 -28.5t-44.5 -30.5q-20 47 -64.5 72.5t-91.5 25.5q-53 0 -108.5 -35.5t-101.5 -112.5t-75.5 -195.5t-29.5 -284.5q0 -86 38.5 -136.5t131.5 -50.5 q53 0 105 32t87 83l80 -61q-43 -72 -116 -117t-177 -45q-78 0 -130 21.5t-84 60.5t-45 89t-13 109q0 14 1 29.5t3 35t5 47.5t9 71h-6q-61 -113 -117.5 -224.5t-109.5 -226.5h-107q35 172 67.5 342t65.5 344q-2 0 -4 2q-35 -68 -63.5 -122t-56 -105t-57.5 -103.5t-69 -113.5 q-29 -53 -59.5 -100.5t-71.5 -82t-95 -55t-128 -20.5q-96 0 -153.5 40t-81.5 111z" />
<glyph unicode="&#x437;" horiz-adv-x="782" d="M-6 172l104 53q20 -51 71.5 -87t145.5 -36q106 0 166 64.5t60 163.5q0 66 -44 102.5t-106 36.5h-104q0 2 4 18.5t8 36t7 35.5t3 19h105q78 0 137 49t59 145q0 66 -51 97.5t-123 31.5t-128 -28.5t-93 -88.5l-92 60q53 90 141 132t193 42q133 0 207.5 -66.5t74.5 -171.5 q0 -29 -8 -65.5t-27.5 -72.5t-50 -66.5t-75.5 -47.5l-5 -8q47 -25 74 -75t27 -101q0 -90 -28 -157.5t-77 -111.5t-118.5 -65.5t-151.5 -21.5q-111 2 -190.5 47t-114.5 137z" />
<glyph unicode="&#x438;" horiz-adv-x="901" d="M84 281q0 2 8 45t20.5 109.5t28 148.5t30.5 161.5t28.5 150.5t21.5 116h127q-8 -39 -20.5 -104.5t-26.5 -140.5t-28.5 -152.5t-27 -141t-19.5 -104.5t-7 -43q-8 -45 -6 -84t20.5 -69t54.5 -46t95 -16q100 0 172 72.5t94 176.5l125 652h127q-8 -41 -23.5 -121t-35 -179.5 t-41 -207t-40 -205.5t-33.5 -178t-23 -121h-127q2 8 5 25.5t7 37t8 37t6 25.5h-6q-59 -74 -132 -105.5t-144 -31.5q-135 0 -198 82t-40 211z" />
<glyph unicode="&#x439;" horiz-adv-x="901" d="M84 281q0 2 8 45t20.5 109.5t28 148.5t30.5 161.5t28.5 150.5t21.5 116h127q-8 -39 -20.5 -104.5t-26.5 -140.5t-28.5 -152.5t-27 -141t-19.5 -104.5t-7 -43q-8 -45 -6 -84t20.5 -69t54.5 -46t95 -16q100 0 172 72.5t94 176.5l125 652h127q-8 -41 -23.5 -121t-35 -179.5 t-41 -207t-40 -205.5t-33.5 -178t-23 -121h-127q2 8 5 25.5t7 37t8 37t6 25.5h-6q-59 -74 -132 -105.5t-144 -31.5q-135 0 -198 82t-40 211zM350 1417h109q-4 -53 30.5 -99t102.5 -46t118 44t66 101h117q-12 -45 -35.5 -89t-62.5 -80t-90.5 -58.5t-118.5 -22.5 q-70 0 -117 21.5t-75.5 56.5t-39 80t-4.5 92z" />
<glyph unicode="&#x43a;" horiz-adv-x="839" d="M20 0l195 1012h127l-86 -449h143q27 0 56.5 5t58.5 21.5t56.5 45.5t50.5 78l143 299h129l-139 -293q-37 -74 -80 -124t-103 -67q68 -16 88.5 -69t28.5 -129l29 -330h-123l-21 297q-10 100 -54 130t-113 30h-170l-89 -457h-127z" />
<glyph unicode="&#x43b;" horiz-adv-x="888" d="M-61 70q51 27 89 55.5t67.5 73.5t52 111.5t47.5 168.5q6 23 15 64t18.5 91t20.5 105.5t20.5 106.5t17.5 94t14 70h584l-195 -1010h-125l172 899h-342q-43 -238 -77.5 -398.5t-78.5 -267t-106 -167t-160 -97.5q-8 25 -17 49.5t-17 51.5z" />
<glyph unicode="&#x43c;" horiz-adv-x="1095" d="M25 0q47 254 96 504t98 504h117q23 -72 47.5 -148t52.5 -174l96 -328h3l221 320l231 330h123l-197 -1008h-127l142 729h-4q-94 -137 -187.5 -270t-189.5 -269h-84l-74 228l-94 305h-4q-35 -182 -70 -362.5t-69 -360.5h-127z" />
<glyph unicode="&#x43d;" horiz-adv-x="884" d="M25 0l196 1012h127l-86 -445h418l86 445h129l-195 -1012h-129l88 461h-417l-90 -461h-127z" />
<glyph unicode="&#x43e;" horiz-adv-x="866" d="M70 281q0 82 8 161.5t28 157.5q23 88 53.5 162t71.5 125q53 66 124 100.5t167 34.5q80 0 137.5 -24.5t93 -67.5t53 -98.5t17.5 -116.5q0 -63 -10 -136t-25 -139q-23 -109 -55.5 -193.5t-81.5 -142t-118.5 -87t-165.5 -29.5q-86 0 -143.5 24.5t-91.5 66.5t-48 94t-14 108z M190 311q0 -41 7.5 -78.5t28 -67.5t56 -47.5t95.5 -17.5q90 0 145.5 46.5t85.5 123.5q18 45 34.5 101.5t29 116t19.5 117t7 104.5q0 98 -50 149t-136 51q-88 0 -154 -59q-43 -39 -73.5 -106.5t-52 -144.5t-32 -153.5t-10.5 -134.5z" />
<glyph unicode="&#x43f;" horiz-adv-x="892" d="M27 0l196 1012h125l-24 -131h4q59 76 134 108.5t146 32.5q66 0 114 -22.5t78.5 -61.5t42 -93t1.5 -116q0 -4 -8.5 -47t-20.5 -109.5t-28.5 -147.5t-32 -161t-28.5 -150.5t-21 -113.5h-130q8 39 21.5 103.5t28 138t30 150.5t27.5 140.5t19.5 103.5t7.5 44q6 41 5 80 t-18.5 68.5t-52.5 48t-96 18.5q-59 0 -106.5 -23.5t-81 -62.5t-56 -91t-33.5 -110l-118 -608h-125z" />
<glyph unicode="&#x440;" horiz-adv-x="872" d="M-63 -406q66 356 135 708.5t139 709.5h125l-23 -115h4q53 59 116 93t153 34q117 0 178 -67.5t61 -198.5q2 -66 -7 -142.5t-21 -140.5q-20 -102 -52 -191t-80.5 -153.5t-118 -101.5t-163.5 -37q-78 0 -133 34.5t-86 92.5h-4l-101 -525h-122zM214 272.5q3 -45.5 20.5 -80 t51 -57t89.5 -22.5q78 0 128 34.5t82.5 92t52 127t34.5 141.5q20 104 24 194q0 41 -7 77t-26.5 63.5t-53.5 43t-85 15.5q-86 0 -146.5 -56.5t-86.5 -131.5q-29 -86 -48.5 -175t-27.5 -173q-4 -47 -1 -92.5z" />
<glyph unicode="&#x441;" horiz-adv-x="768" d="M57 295q0 59 7.5 119.5t17.5 120.5q16 94 50 182t88 155.5t132 108.5t183 41q106 0 181 -51t91 -150l-117 -55q-10 66 -55 101.5t-111 35.5q-72 0 -125 -32.5t-91 -86t-61.5 -121t-37.5 -139.5q-23 -113 -23 -207q0 -96 40 -153.5t149 -57.5q68 0 126 36t87 98l108 -60 q-49 -86 -135 -139t-203 -53q-90 0 -148 26.5t-92 69.5t-47.5 98.5t-13.5 112.5z" />
<glyph unicode="&#x442;" horiz-adv-x="1452" d="M41 0q47 254 97 504t98 504h124l-24 -125h6q55 70 126 102.5t144 32.5q92 0 151.5 -39t78.5 -111q133 152 303 152q86 0 138 -29.5t77.5 -79t29 -110t-9.5 -121.5l-133 -680h-127l133 678q8 37 5 75t-19 68.5t-49 49t-84 18.5q-59 0 -106.5 -23.5t-83 -61.5t-59 -88 t-34.5 -106l-116 -610h-127l133 680q8 41 5 80t-21.5 69.5t-53.5 49t-90 18.5q-61 0 -107.5 -24.5t-79 -66.5t-54 -97.5t-31.5 -116.5l-117 -592h-123z" />
<glyph unicode="&#x443;" horiz-adv-x="753" d="M-119 -299q72 4 133.5 28.5t118.5 100.5q23 29 41.5 58.5t40.5 72.5l-123 1049h129q10 -111 20.5 -220.5t20.5 -220.5q6 -55 12.5 -119.5t10.5 -130t7 -129t1 -114.5h4q51 92 104.5 206.5t104.5 238.5t98 250t86 239h129q-129 -362 -259 -645t-265 -506 q-74 -127 -169 -196t-224 -69h-21v107z" />
<glyph unicode="&#x444;" horiz-adv-x="1058" d="M68 289q0 78 11 162t32.5 162.5t52.5 146t67 112.5q59 72 145.5 116t207.5 40l82 418h125l-82 -418q160 -10 234.5 -93t74.5 -214q-4 -86 -14.5 -173t-32.5 -171q-23 -86 -57.5 -158t-90 -123t-134.5 -81.5t-185 -32.5l-74 -385h-125q18 98 35.5 193t38.5 192 q-166 14 -238.5 95t-72.5 212zM191.5 280.5q3.5 -38.5 17.5 -73.5q40 -99 190 -113q41 205 81 408t81 407q-66 0 -119 -21.5t-90 -60.5q-61 -66 -86.5 -138.5t-48.5 -172.5q-8 -39 -15 -79t-10.5 -79t0 -77.5zM524 94q59 0 108.5 18.5t86.5 49.5q55 47 89 122.5t52 166.5 q14 59 23.5 125.5t9.5 121.5q0 94 -43 147.5t-164 63.5z" />
<glyph unicode="&#x445;" horiz-adv-x="774" d="M-39 0l391 520q-6 12 -20.5 50t-31.5 88.5t-37.5 106.5t-38 106.5t-32 88t-20.5 52.5h143l123 -389q8 10 29.5 39.5t49.5 69.5l59.5 85l59.5 85t48.5 69.5t28.5 40.5h153l-377 -496q6 -14 21.5 -54t35 -92.5t41 -111.5t41 -111.5t35 -92.5t21.5 -54h-143l-135 408 q-8 -10 -31 -42t-52.5 -73t-62.5 -89t-62.5 -89t-52 -73t-30.5 -42h-154z" />
<glyph unicode="&#x446;" horiz-adv-x="919" d="M80 191.5q-4 60.5 8 125.5l133 693h127l-129 -660q-10 -47 -8 -90t18.5 -76.5t52 -54t95.5 -20.5q61 0 108 26.5t82 68.5t57.5 95t32.5 107l117 604h125l-141 -717q-6 -31 -9.5 -67t2 -68.5t23 -59t55.5 -41.5l-73 -315h-111l55 256q-45 23 -62 59.5t-20 75.5h-2 q-27 -37 -62.5 -64.5t-75.5 -45t-81 -26.5t-78 -9q-80 0 -130 26.5t-77.5 71.5t-31.5 105.5z" />
<glyph unicode="&#x447;" horiz-adv-x="815" d="M104 696l62 316h123l-60 -310q-20 -94 20 -148t163 -54q45 0 105.5 17.5t109.5 45.5l88 449h129l-197 -1012h-129l86 442q-55 -29 -119.5 -43t-105.5 -14q-170 0 -236.5 82t-38.5 229z" />
<glyph unicode="&#x448;" horiz-adv-x="1417" d="M71 205.5q-3 60.5 9 122.5l135 680h125l-131 -678q-8 -37 -6 -75t19.5 -68.5t50 -49t83.5 -18.5q59 0 106.5 23.5t83.5 61.5t58.5 88t32.5 105q2 16 11 64.5t21.5 110t27 131t26.5 132t20.5 109.5t12.5 64h127q-25 -123 -44.5 -221.5t-36 -180.5t-28.5 -149.5t-24 -128.5 q-6 -41 -3 -80t20 -70t51 -49t89 -18q68 0 115 28.5t80 76.5t53.5 108.5t32.5 124.5l108 559h125l-196 -1008h-125l24 125h-4q-57 -70 -127.5 -102.5t-142.5 -32.5q-94 0 -152.5 39t-76.5 110h-3q-133 -151 -303 -151q-86 0 -137 29.5t-77.5 78.5t-29.5 109.5z" />
<glyph unicode="&#x449;" horiz-adv-x="1449" d="M78 231q0 23 3 47.5t7 49.5l133 680h127l-133 -678q-6 -29 -6 -54q0 -61 33.5 -109t119.5 -48q57 0 105.5 22.5t84.5 61.5t59.5 89t33.5 105l117 611h127q-25 -123 -44.5 -221.5t-35.5 -179.5t-29.5 -149.5t-23.5 -129.5q-6 -31 -6 -60q0 -66 34.5 -112.5t126.5 -46.5 q55 0 100.5 22.5t81 61t59.5 92t34 112.5l119 611h125l-136 -693q-6 -29 -11 -61.5t-5 -63.5q0 -43 16.5 -78.5t63.5 -54.5l-74 -313h-108l55 256q-45 23 -62.5 58.5t-19.5 74.5q-59 -76 -142 -107.5t-157 -31.5q-190 0 -225 145q-131 -152 -301 -151q-70 0 -117 19.5 t-76 53t-41 77.5t-12 93z" />
<glyph unicode="&#x44a;" horiz-adv-x="1005" d="M76 899q0 2 3 19.5t7 37t7 37t3 19.5h406q-4 -18 -15.5 -78t-24.5 -127.5t-25.5 -125.5t-16.5 -77h233q90 0 147.5 -24.5t90.5 -63.5t45 -84t12 -84q0 -68 -24.5 -132t-75.5 -115.5t-127 -83t-176 -31.5q-80 0 -143.5 24.5t-103.5 71.5t-55.5 116.5t3.5 159.5l106 541 h-276zM367 334q-18 -96 28.5 -164t155.5 -68q68 0 118 20.5t82.5 53.5t49 76t16.5 88q0 66 -49 107.5t-145 41.5h-224z" />
<glyph unicode="&#x44b;" horiz-adv-x="1148" d="M82 358l127 654h129l-82 -408h233q90 0 147.5 -24.5t89.5 -63.5t44 -84t12 -84q0 -68 -24.5 -132t-74.5 -115.5t-126 -83t-176 -31.5q-162 0 -248 96t-51 276zM205 334q-18 -98 27.5 -165t154.5 -67q68 0 118 20.5t83 53.5t49 76t16 88q0 66 -49 107.5t-147 41.5h-221z M823 0q49 254 99.5 504t97.5 506h129l-197 -1010h-129z" />
<glyph unicode="&#x44c;" horiz-adv-x="849" d="M90 358l127 654h129l-82 -408h234q90 0 147 -24.5t89 -63.5t44.5 -84t12.5 -84q0 -68 -25 -132t-75 -115.5t-126 -83t-176 -31.5q-162 0 -248 96t-51 276zM213 334q-18 -98 27.5 -165t154.5 -67q68 0 118 20.5t83 53.5t49.5 76t16.5 88q0 66 -49.5 107.5t-147.5 41.5 h-221z" />
<glyph unicode="&#x44d;" horiz-adv-x="782" d="M10 168l109 55q16 -57 66.5 -89t111.5 -32q82 0 133 30t84 80t50.5 114.5t31.5 132.5h-356q6 27 11 52.5t9 53.5h354q8 45 10.5 79t2.5 63q0 90 -44 142t-143 52q-59 0 -117.5 -27.5t-97.5 -80.5l-94 63q51 78 128 122t187 44q160 0 233 -85t73 -220q0 -74 -9.5 -155 t-27 -158.5t-44 -148.5t-65.5 -122q-47 -66 -121.5 -105.5t-185.5 -39.5q-109 0 -186.5 46t-102.5 134z" />
<glyph unicode="&#x44e;" horiz-adv-x="1142" d="M25 0l194 1008h127l-86 -443h143q47 223 142.5 341t265.5 118q80 0 135 -26.5t89 -69.5t49.5 -99.5t15.5 -115.5q0 -70 -11.5 -143.5t-25.5 -139.5q-23 -104 -55.5 -186t-81.5 -138.5t-116 -86t-157 -29.5q-80 0 -135 24.5t-89 64.5t-48 92t-14 110q2 47 6 87t12 93h-145 q-23 -117 -45.5 -231.5t-44.5 -229.5h-125zM487 309q0 -37 5.5 -74.5t24 -67.5t53 -48.5t92.5 -18.5q70 0 117.5 33t80.5 84t52.5 115.5t33.5 130.5q14 63 22.5 128.5t8.5 121.5q0 88 -44 142t-132 54q-104 0 -174 -84q-37 -45 -63.5 -130t-49.5 -183q-12 -61 -19.5 -114.5 t-7.5 -88.5z" />
<glyph unicode="&#x44f;" horiz-adv-x="862" d="M-10 0l102 274q12 33 27.5 66t36 61.5t46 50t60.5 33.5q-68 29 -97.5 81t-29.5 122q0 74 25.5 133.5t73 101.5t113 64.5t142.5 22.5h377q-10 -55 -25.5 -137t-34 -175.5t-36.5 -192.5t-35.5 -192.5t-33 -175.5t-25.5 -137h-127q6 35 17.5 95.5t24.5 126t25.5 126 t18.5 94.5h-205q-61 0 -115.5 -30.5t-91.5 -126.5l-106 -285h-127zM260 688q0 -68 49 -102.5t133 -34.5h213l68 346h-209q-47 0 -93 -10t-82 -35t-57.5 -64.5t-21.5 -99.5z" />
<glyph unicode="&#x451;" horiz-adv-x="839" d="M68 301q0 72 9 154t30.5 161.5t56.5 153.5t85 130t118.5 90t158.5 34q143 0 220 -66.5t77 -175.5q0 -164 -119.5 -260t-377.5 -96q-23 0 -59 1t-68 5q-4 -29 -7.5 -58.5t-3.5 -56.5q0 -90 38 -150.5t141 -60.5q61 0 128.5 34t104.5 89l102 -57q-55 -82 -143 -133 t-205 -51q-84 0 -139 27.5t-88 71.5t-46 100.5t-13 113.5zM219 545q29 -4 66 -6t61 -2q94 0 161.5 17t109.5 48t61.5 72t19.5 90q0 63 -48 103t-134 40q-123 0 -194.5 -99t-102.5 -263zM338 1233l27 139h127l-27 -139h-127zM678 1233l27 139h126l-26 -139h-127z" />
<glyph unicode="&#x452;" horiz-adv-x="894" d="M31 0l229 1182h-110l20 102h109q10 49 20 99.5t20 101.5h125q-10 -51 -19 -101.5t-19 -99.5h403l-21 -102h-403l-61 -320h4q53 68 124.5 109t157.5 41q70 0 117 -23.5t74.5 -64.5t40 -96.5t12.5 -120.5q0 -72 -6 -157t-22.5 -171t-48.5 -164t-83 -135 q-59 -66 -155.5 -96.5t-202.5 -26.5l20 109q82 2 140.5 22.5t98.5 60t65.5 100t41.5 140.5q6 33 12.5 72t9.5 75.5t5 69.5t2 53q0 111 -34.5 171.5t-135.5 60.5q-70 0 -122 -37t-90 -94.5t-61.5 -127t-35.5 -132.5l-96 -500h-125z" />
<glyph unicode="&#x453;" horiz-adv-x="811" d="M37 215q0 152 94 232.5t262 127.5q135 41 202 84t67 121q0 63 -45.5 93t-122.5 30q-74 0 -141.5 -29.5t-110.5 -89.5l-97 62q55 86 144.5 131t206.5 47q61 0 114.5 -12.5t93 -40t63.5 -70.5t24 -102q0 -68 -25 -119t-71 -89t-109.5 -67.5t-141.5 -54.5 q-59 -18 -109 -36.5t-88 -43t-59.5 -61.5t-21.5 -92q0 -72 51 -103t139 -31q63 0 135 31t119 88l92 -63q-59 -86 -148 -130t-220 -44q-63 0 -117.5 14t-94.5 43t-62.5 72t-22.5 102zM489 1171l201 332l119 -43l-248 -321z" />
<glyph unicode="&#x454;" horiz-adv-x="782" d="M59 295q0 55 6.5 113.5t16.5 115.5q16 96 50 186.5t88 160t132 111.5t185 42q106 0 181 -52t91 -151l-119 -55q-10 66 -55 101.5t-111 35.5q-68 0 -119 -28.5t-87.5 -75.5t-60.5 -108.5t-38 -125.5h363l-21 -110h-362q-6 -39 -8.5 -73t-2.5 -63q0 -104 40 -158.5 t149 -54.5q68 0 125 37t86 99q6 -4 21.5 -12.5t34 -18.5t33.5 -18.5t21 -10.5q-49 -86 -135 -140t-205 -54q-90 0 -147 25.5t-91 68.5t-47.5 98.5t-13.5 114.5z" />
<glyph unicode="&#x455;" horiz-adv-x="806" d="M16 186l109 58q27 -66 79 -103t142 -37q45 0 89 13.5t77 39t53.5 64.5t20.5 90q0 39 -17.5 63.5t-46 42t-68.5 29t-85 23.5q-111 33 -171.5 83t-60.5 148q0 74 28 133.5t76 102.5t114.5 65.5t146.5 22.5q115 0 189.5 -48t105.5 -134l-115 -58q-43 119 -195 119 q-98 0 -158.5 -53t-60.5 -131q0 -63 53.5 -91t147.5 -53q55 -14 101 -32.5t79 -47t51.5 -69.5t18.5 -96q0 -160 -102.5 -251t-282.5 -91q-121 0 -205 50t-113 148z" />
<glyph unicode="&#x456;" horiz-adv-x="378" d="M43 0l197 1012h127l-197 -1012h-127zM289 1272l24 133h131l-26 -133h-129z" />
<glyph unicode="&#x457;" horiz-adv-x="378" d="M43 0l197 1012h127l-197 -1012h-127zM106 1219l27 139h127l-27 -139h-127zM446 1219l27 139h127l-27 -139h-127z" />
<glyph unicode="&#x458;" horiz-adv-x="399" d="M-182 -410l20 119q4 0 12.5 -1t16.5 -1q78 0 112.5 42t51.5 128l221 1133h127l-227 -1164q-10 -55 -32 -102t-54.5 -82t-79.5 -54.5t-109 -19.5h-30.5t-28.5 2zM301 1272l27 131h131l-27 -131h-131z" />
<glyph unicode="&#x459;" horiz-adv-x="1314" d="M-53 72q59 29 102 67.5t75 94t55.5 130t41.5 173.5l90 473h520l-81 -406h233q90 0 147.5 -24.5t89 -63.5t44 -84t12.5 -84q0 -68 -24.5 -132t-75 -115.5t-126 -83t-176.5 -31.5q-162 0 -247.5 96t-51.5 276l105 539h-272l-74 -391q-25 -123 -55.5 -213t-73.5 -153.5 t-98.5 -103.5t-124.5 -65zM698 334q-18 -98 28 -165t155 -67q68 0 118 20.5t82.5 53.5t49 76t16.5 88q0 66 -49 107.5t-148 41.5h-221z" />
<glyph unicode="&#x45a;" horiz-adv-x="1343" d="M23 0q6 27 21 105.5t34.5 181t42 218.5t43 219t35 181t20.5 107h127q-4 -18 -14 -78t-23.5 -127.5t-25 -125.5t-15.5 -77h367l80 408h129l-82 -408h233q90 0 147.5 -24.5t90.5 -63.5t45 -84t12 -84q0 -68 -24.5 -132t-75.5 -115.5t-127 -83t-176 -31.5q-80 0 -143.5 24.5 t-104.5 71.5t-55.5 116.5t2.5 159.5l26 131h-366l-96 -489h-127zM711 334q-18 -98 27.5 -165t154.5 -67q68 0 118 20.5t82.5 53.5t49 76t16.5 88q0 66 -49 107.5t-147 41.5h-222z" />
<glyph unicode="&#x45b;" horiz-adv-x="897" d="M29 0l227 1180h-117l21 102h116q12 66 21.5 119t17.5 88h127l-41 -207h398l-19 -102h-399l-57 -299h4q59 74 134 107.5t146 33.5q131 0 193.5 -85t40.5 -218q0 -4 -8.5 -46t-20.5 -106.5t-26.5 -145.5t-30 -160t-28.5 -148.5t-21 -112.5h-129q8 39 20 103.5t26.5 138 t30 150.5t27.5 140.5t19.5 103.5t7.5 44q8 41 6 80t-19.5 68.5t-51.5 48t-89 18.5q-59 0 -107.5 -23.5t-83 -62.5t-58 -92t-36.5 -111l-116 -606h-125z" />
<glyph unicode="&#x45c;" horiz-adv-x="839" d="M20 0l195 1012h127l-86 -449h143q27 0 56.5 5t58.5 21.5t56.5 45.5t50.5 78l143 299h129l-139 -293q-37 -74 -80 -124t-103 -67q68 -16 88.5 -69t28.5 -129l29 -330h-123l-21 297q-10 100 -54 130t-113 30h-170l-89 -457h-127zM479 1171l201 332l119 -43l-248 -321z" />
<glyph unicode="&#x45e;" horiz-adv-x="753" d="M-119 -299q72 4 133.5 28.5t118.5 100.5q23 29 41.5 58.5t40.5 72.5l-123 1049h129q10 -111 20.5 -220.5t20.5 -220.5q6 -55 12.5 -119.5t10.5 -130t7 -129t1 -114.5h4q51 92 104.5 206.5t104.5 238.5t98 250t86 239h129q-129 -362 -259 -645t-265 -506 q-74 -127 -169 -196t-224 -69h-21v107zM240 1417h108q-4 -53 31 -99t102 -46q68 0 118 44t67 101h116q-12 -45 -35.5 -89t-62.5 -80t-90 -58.5t-119 -22.5q-70 0 -117 21.5t-75.5 56.5t-39 80t-3.5 92z" />
<glyph unicode="&#x45f;" horiz-adv-x="899" d="M84 281q0 2 8 45t20.5 109.5t28 148.5t30.5 161.5t28.5 150.5t21.5 116h127q-8 -39 -20.5 -104.5t-26.5 -140.5t-28.5 -152.5t-27 -141t-19.5 -104.5t-7 -43q-8 -45 -6 -84t20.5 -69t54.5 -46t95 -16q100 0 172 72.5t94 176.5l125 652h127q-8 -41 -23.5 -121t-35 -179.5 t-41 -207t-40 -205.5t-33.5 -178t-23 -121h-127q2 8 5 25.5t7 37t8 37t6 25.5h-6q-59 -74 -132 -105.5t-144 -31.5q-135 0 -198 82t-40 211zM291 -358l65 286l125 27q-4 -18 -15 -63.5t-22.5 -95.5t-22.5 -94l-15 -60h-115z" />
<glyph unicode="&#x490;" horiz-adv-x="884" d="M51 0l271 1425h593l54 246h123l-78 -368h-586l-248 -1303h-129z" />
<glyph unicode="&#x491;" horiz-adv-x="741" d="M29 0l192 1012h486l45 227h118l-69 -342h-475l-172 -897h-125z" />
<glyph unicode="&#x4d9;" horiz-adv-x="839" d="M61 231q0 162 126 259.5t360 97.5q27 0 62.5 -2t70.5 -6q8 33 11 65.5t3 61.5q0 86 -38 142t-134 56q-63 0 -129.5 -33.5t-107.5 -89.5l-97 56q49 86 137.5 137t204.5 51q80 0 134.5 -23.5t88 -65.5t49 -100.5t15.5 -127.5q-2 -119 -25.5 -247t-76.5 -233.5t-141.5 -173 t-217.5 -67.5q-145 0 -220 65.5t-75 177.5zM188 248q0 -63 45.5 -104.5t131.5 -41.5q127 0 196.5 100.5t100.5 262.5q-31 6 -68 8t-64 2q-166 0 -254 -64.5t-88 -162.5z" />
<glyph unicode="&#x2000;" horiz-adv-x="914" />
<glyph unicode="&#x2001;" horiz-adv-x="1829" />
<glyph unicode="&#x2002;" horiz-adv-x="914" />
<glyph unicode="&#x2003;" horiz-adv-x="1829" />
<glyph unicode="&#x2004;" horiz-adv-x="609" />
<glyph unicode="&#x2005;" horiz-adv-x="457" />
<glyph unicode="&#x2006;" horiz-adv-x="304" />
<glyph unicode="&#x2007;" horiz-adv-x="304" />
<glyph unicode="&#x2008;" horiz-adv-x="228" />
<glyph unicode="&#x2009;" horiz-adv-x="365" />
<glyph unicode="&#x200a;" horiz-adv-x="101" />
<glyph unicode="&#x2010;" horiz-adv-x="733" d="M119 508l24 117h537l-23 -117h-538z" />
<glyph unicode="&#x2011;" horiz-adv-x="733" d="M119 508l24 117h537l-23 -117h-538z" />
<glyph unicode="&#x2012;" horiz-adv-x="733" d="M119 508l24 117h537l-23 -117h-538z" />
<glyph unicode="&#x2013;" horiz-adv-x="1011" d="M51 483l25 123h930l-25 -123h-930z" />
<glyph unicode="&#x2014;" horiz-adv-x="2037" d="M39 483l24 123h1956l-22 -123h-1958z" />
<glyph unicode="&#x2018;" horiz-adv-x="407" d="M248 1081l35 168l133 215h76l-95 -215h41l-32 -168h-158z" />
<glyph unicode="&#x2019;" horiz-adv-x="407" d="M250 1081l94 215h-43l35 170h156l-33 -170l-131 -215h-78z" />
<glyph unicode="&#x201a;" horiz-adv-x="387" d="M-25 -219l95 213h-41l32 170h156l-33 -168l-133 -215h-76z" />
<glyph unicode="&#x201c;" horiz-adv-x="555" d="M205 1081l33 168l133 215h75l-92 -215h41l-35 -168h-155zM436 1081l33 168l133 215h76l-92 -215h39l-33 -168h-156z" />
<glyph unicode="&#x201d;" horiz-adv-x="555" d="M211 1081l96 215h-41l33 170h158l-33 -170l-135 -215h-78zM444 1081l95 215h-41l34 170h154l-33 -170l-133 -215h-76z" />
<glyph unicode="&#x201e;" horiz-adv-x="641" d="M-18 -217l92 213h-41l35 168h155l-33 -168l-133 -213h-75zM221 -217l92 213h-41l35 168h156l-33 -168l-133 -213h-76z" />
<glyph unicode="&#x2020;" horiz-adv-x="813" d="M109 825l22 113h313l93 473h122l-94 -473h316l-23 -113h-313l-234 -1194h-121l232 1194h-313z" />
<glyph unicode="&#x2021;" horiz-adv-x="823" d="M-2 246l22 112h314l92 467h-315l22 113h316l92 473h123l-93 -473h318l-21 -113h-317l-92 -467h317l-20 -112h-320l-119 -615h-122l118 615h-315z" />
<glyph unicode="&#x2022;" horiz-adv-x="782" d="M176 551q0 45 17.5 86t47 70.5t69.5 47t85 17.5t85 -17.5t70 -47t47 -70.5t17 -86t-17 -85t-47 -69.5t-70 -47t-85 -17.5t-85 17.5t-69.5 47t-47 69.5t-17.5 85z" />
<glyph unicode="&#x2026;" horiz-adv-x="1298" d="M41 0l31 166h153l-30 -166h-154zM475 0l31 166h153l-30 -166h-154zM915 0l31 166h156l-31 -166h-156z" />
<glyph unicode="&#x202f;" horiz-adv-x="365" />
<glyph unicode="&#x2030;" horiz-adv-x="1781" d="M98 -35l1049 1495h104l-1050 -1495h-103zM137 805l82 418q18 96 76.5 151.5t161.5 55.5q104 0 160.5 -67t37.5 -169l-77 -424q-16 -92 -74 -149.5t-162 -57.5q-111 0 -169 67.5t-36 174.5zM236 782q-12 -51 16.5 -89t91.5 -38q66 0 94.5 36t38.5 83l84 438 q10 49 -19.5 86t-88.5 37t-91 -32.5t-43 -81.5zM707 231l81 418q18 96 77 151.5t161 55.5q104 0 160.5 -66.5t38.5 -168.5l-78 -424q-16 -92 -74 -149.5t-162 -57.5q-111 0 -169 67.5t-35 173.5zM805 209q-12 -51 16.5 -89t91.5 -38q66 0 94.5 36t39.5 83l83 438 q10 49 -19.5 86t-88.5 37t-91 -33t-42 -82zM1227 231l82 418q18 96 76.5 151.5t160.5 55.5q104 0 160.5 -66.5t38.5 -168.5l-78 -424q-16 -92 -73.5 -149.5t-161.5 -57.5q-111 0 -169.5 67.5t-35.5 173.5zM1325 209q-12 -51 16.5 -89t92.5 -38q66 0 94 36t39 83l84 438 q10 49 -20 86t-89 37t-91 -33t-42 -82z" />
<glyph unicode="&#x2039;" horiz-adv-x="559" d="M70 469l307 373h127l-307 -375l159 -373h-125z" />
<glyph unicode="&#x203a;" horiz-adv-x="542" d="M31 94l309 377l-162 371h125l164 -373l-309 -375h-127z" />
<glyph unicode="&#x2044;" horiz-adv-x="331" d="M-410 -35l1049 1495h104l-1050 -1495h-103z" />
<glyph unicode="&#x205f;" horiz-adv-x="457" />
<glyph unicode="&#x20ac;" d="M55 565l19 86h76l24 133h-78l19 84h78l16 82q18 92 48 180.5t82 156t130 108.5t193 41q145 0 227 -72t98 -195l-131 -41q-10 86 -61.5 137.5t-137.5 51.5q-84 0 -139 -34t-91 -88t-57.5 -120.5t-33.5 -132.5l-14 -74h397l-17 -84h-397l-24 -133h397l-16 -86h-398 l-31 -164q-10 -55 -8 -108t23.5 -95t64.5 -68t113 -26q94 0 165 51.5t111 145.5l123 -43q-57 -135 -162.5 -202.5t-246.5 -67.5q-102 0 -170 32.5t-105 90t-45 134.5t8 165l27 155h-76z" />
<glyph unicode="&#x2122;" horiz-adv-x="1499" d="M70 1329v96h524v-96h-211v-706h-102v706h-211zM692 623v800h99q61 -135 122.5 -269t122.5 -267q59 133 121 267t121 269h96v-800h-100v548l-201 -421h-82l-196 421h-4v-548h-99z" />
<glyph unicode="&#x2202;" horiz-adv-x="868" d="M59 291q0 133 39 244.5t100.5 191.5t138 125t152.5 45q66 0 133.5 -30.5t122.5 -121.5q25 129 25 236q0 182 -66.5 280.5t-193.5 98.5q-55 0 -111 -14q6 29 11.5 54t9.5 52q35 10 62.5 13t56.5 3q92 0 156.5 -37.5t105.5 -102t59.5 -151.5t18.5 -186q0 -84 -8.5 -163.5 t-24.5 -153.5q-33 -164 -88.5 -292t-125 -218t-150.5 -137t-163 -47q-123 0 -191.5 80.5t-68.5 230.5zM170 319q0 -111 47 -169t127 -58q68 0 126 46t106.5 119t83 164t57.5 181q-51 106 -115 147.5t-121 41.5q-72 0 -129 -47.5t-98 -118t-62.5 -153.5t-21.5 -153z" />
<glyph unicode="&#x220f;" horiz-adv-x="1067" d="M16 -174l312 1599h802l-313 -1599h-133l291 1483h-537l-291 -1483h-131z" />
<glyph unicode="&#x2211;" horiz-adv-x="817" d="M-63 -172l22 117l424 682l-160 688l23 110h704l-24 -120h-561l161 -678l-424 -676h582l-22 -123h-725z" />
<glyph unicode="&#x221a;" horiz-adv-x="935" d="M100 739l242 90l90 -794q10 31 40 108.5t72 187t92 239.5t102.5 264.5t102.5 264.5t92 239.5t70.5 187.5t38.5 108h111l-702 -1804h-103l-100 864l-135 -51z" />
<glyph unicode="&#x221e;" horiz-adv-x="1392" d="M84 555q0 59 21.5 111.5t60.5 90.5t91.5 60.5t111.5 22.5q49 0 96 -19.5t89 -50.5t79 -71t65 -81q31 45 69 85t81 71t91 48.5t99 17.5q57 0 107.5 -20.5t87.5 -58.5t57.5 -90.5t20.5 -115.5q0 -61 -21.5 -114.5t-60.5 -91.5t-90.5 -60.5t-112.5 -22.5q-49 0 -93 18.5 t-84 48t-78 69.5t-73 83q-39 -47 -75.5 -87t-77.5 -68.5t-87 -46t-102 -17.5q-59 0 -108 20.5t-86 58.5t-57.5 91t-20.5 119zM178 555q0 -41 14.5 -77t40 -61.5t60.5 -40t74 -14.5t76.5 16.5t71.5 42t64.5 60.5t55.5 72q-23 33 -52.5 66.5t-63.5 61.5t-72.5 45t-77.5 17 t-74 -15t-60.5 -40.5t-41 -59.5t-15.5 -73zM760 553q29 -35 58.5 -69.5t63 -61.5t69.5 -43.5t77 -16.5q39 0 73 15.5t59.5 41t39.5 60.5t14 76q0 80 -53 134t-129 54q-80 0 -147.5 -57t-124.5 -133z" />
<glyph unicode="&#x222b;" horiz-adv-x="620" d="M-152 -297l29 88q41 -8 72 -8q45 0 76.5 16.5t57.5 56.5t49.5 106.5t51.5 164.5q14 61 34 158.5t41.5 203t41 206.5t35.5 175q41 186 73.5 320.5t73.5 220.5t99.5 126t152.5 40q16 0 46 -2t53 -12l-27 -93q-23 4 -42.5 6.5t-33.5 2.5q-74 0 -123 -69t-88 -202 t-75.5 -330.5t-88.5 -457.5q-39 -205 -74.5 -345.5t-80.5 -226.5t-104.5 -123.5t-143.5 -37.5q-23 0 -51.5 3t-53.5 13z" />
<glyph unicode="&#x2248;" d="M31 393q51 70 113.5 108t131.5 38q49 0 91.5 -17.5t82 -38t78.5 -38t82 -17.5q41 0 77 19.5t77 72.5l74 -49q-47 -74 -105.5 -114t-134.5 -40q-43 0 -85 17.5t-85 38t-85 38t-85 17.5q-45 0 -79 -22.5t-79 -69.5zM82 696q51 70 113.5 108t132.5 38q49 0 91 -17.5t82 -38 t78.5 -38t82.5 -17.5q41 0 76.5 19.5t76.5 72.5l74 -49q-47 -74 -105.5 -113.5t-134.5 -39.5q-43 0 -85 17t-85 37.5t-85 38t-85 17.5q-45 0 -78.5 -22.5t-78.5 -69.5z" />
<glyph unicode="&#x2260;" d="M-4 125l211 240h-191l21 106h264l211 238h-428l18 102h500l211 238h111l-211 -238h176l-19 -102h-247l-209 -238h409l-20 -106h-484l-213 -242z" />
<glyph unicode="&#x2264;" horiz-adv-x="890" d="M-27 20l21 105h780l-20 -105h-781zM63 539l23 100l844 315l-23 -110l-692 -252l592 -258l-21 -113z" />
<glyph unicode="&#x2265;" horiz-adv-x="890" d="M-12 20l18 105h780l-20 -105h-778zM20 221l21 111l692 258l-592 252l23 112l719 -315l-21 -100z" />
<glyph unicode="&#x25ca;" horiz-adv-x="690" d="M43 594l229 588h134q57 -147 115.5 -294t117.5 -294l-233 -588h-134zM152 590h2q47 -119 92 -235.5t92 -235.5h4l186 471q-47 119 -95 237.5t-95 237.5h-4q-45 -119 -90 -237.5t-92 -237.5z" />
<glyph unicode="&#x25fc;" horiz-adv-x="1013" d="M0 0v1014h1014v-1014h-1014z" />
</font>
</defs>
</svg>
